# Blender v2.93.2 OBJ File: ''
# www.blender.org
mtllib 1.mtl
o 1_1.001
v 1.500000 2.162120 1.500000
v 1.500000 2.262120 1.500000
v 1.500000 2.262120 -1.156440
v 1.500000 2.262120 -1.500000
v 1.500000 2.162120 -1.500000
v 1.500000 2.162120 -1.156440
v 1.500000 2.162120 -1.056440
v 1.500000 2.162120 1.056440
v 1.500000 2.162120 1.156440
v -1.500000 2.162120 1.500000
v -1.500000 2.262120 1.500000
v -1.156440 2.262120 1.500000
v 1.156440 2.162120 1.500000
v 1.056440 2.162120 1.500000
v -1.056440 2.162120 1.500000
v -1.156440 2.162120 1.500000
v -1.500000 2.262120 -1.500000
v -1.500000 2.162120 -1.500000
v -1.500000 2.162120 -1.156440
v -1.500000 2.162120 -1.056440
v -1.500000 2.162120 1.056440
v -1.500000 2.162120 1.156440
v -1.500000 1.631060 -1.500000
v -1.500000 0.631060 -1.500000
v -1.500000 0.100000 -1.156440
v -1.500000 0.100000 -1.056440
v -1.500000 0.631060 -1.400000
v -1.500000 1.631060 -1.400000
v 1.500000 1.631060 -1.500000
v 1.500000 1.631060 -1.400000
v 1.500000 0.631060 -1.400000
v 1.500000 0.100000 -1.056440
v 1.500000 0.100000 -1.156440
v 1.500000 0.631060 -1.500000
v 1.500000 0.100000 1.056440
v -1.500000 0.100000 1.056440
v -1.056440 0.100000 1.500000
v 1.056440 0.100000 1.500000
v 1.500000 -0.000000 1.500000
v 1.500000 0.100000 1.500000
v 1.500000 0.100000 1.156440
v 1.500000 0.100000 -1.500000
v 1.500000 0.000000 -1.500000
v -1.500000 -0.000000 1.500000
v -1.500000 0.100000 1.500000
v -1.156440 0.100000 1.500000
v 1.156440 0.100000 1.500000
v -1.500000 0.100000 -1.500000
v -1.500000 0.000000 -1.500000
v -1.500000 0.100000 1.156440
v -1.400000 1.631060 1.500000
v -1.400000 0.631060 1.500000
v -1.500000 0.631060 1.500000
v -1.500000 1.631060 1.500000
v 1.500000 1.631060 1.400000
v 1.400000 1.631060 1.500000
v 1.500000 1.631060 1.500000
v 1.500000 0.631060 1.500000
v 1.400000 0.631060 1.500000
v 1.500000 0.631060 1.400000
v -1.500000 1.631060 1.400000
v -1.500000 0.631060 1.400000
vt -1.897050 3.710830
vt -2.460630 3.546780
vt -1.897050 3.546780
vt 1.733010 3.546780
vt 1.897050 3.546780
vt 1.897050 3.710830
vt -2.460630 3.710830
vt -1.897050 3.546780
vt -1.733010 3.546780
vt -1.897050 -2.460630
vt 2.460630 1.897050
vt -2.460630 2.460630
vt -2.460630 3.710830
vt 2.460630 3.546780
vt 2.460630 3.710830
vt -2.460630 1.897050
vt 2.460630 2.460630
vt -2.460630 2.460630
vt -2.460630 1.733010
vt 2.460630 1.897050
vt -2.460630 2.675620
vt -2.460630 1.035200
vt -2.296590 2.675620
vt 2.460630 1.947520
vt -2.460630 0.909955
vt 2.460630 0.909955
vt 2.296590 1.035200
vt 2.460630 1.035200
vt 2.460630 2.675620
vt -2.460630 0.999058
vt 2.460630 2.036620
vt -2.460630 2.036620
vt 2.460630 2.675620
vt -2.460630 1.035200
vt 2.460630 1.035200
vt 2.460630 2.116620
vt -2.460630 1.079060
vt 2.460630 1.079060
vt -2.460630 -1.733010
vt -1.733010 -2.460630
vt 1.733010 -2.460630
vt -1.733010 0.164042
vt -1.897050 0.164042
vt -2.460630 0.000000
vt -1.733010 0.164042
vt -1.897050 0.164042
vt -2.460630 0.000000
vt 2.460630 0.000000
vt 1.897050 0.164042
vt 1.733010 0.164042
vt -2.460630 1.897050
vt 2.460630 2.460630
vt -2.460630 2.460630
vt -2.460630 1.733010
vt 2.460630 1.897050
vt 2.460630 2.205730
vt -2.460630 1.168160
vt 2.460630 1.168160
vt -2.460630 0.164042
vt 2.460630 0.000000
vt 2.460630 0.164042
vt -2.460630 2.460630
vt -2.460630 -2.460630
vt 2.460630 2.460630
vt 2.460630 -2.460630
vt -2.460630 -2.460630
vt -1.897050 -2.460630
vt -2.460630 -1.897050
vt 2.296590 1.035200
vt 2.460630 1.035200
vt 2.460630 2.675620
vt -1.733010 -2.460630
vt -2.460630 -1.897050
vt -1.897050 -2.460630
vt 2.460630 -1.733010
vt 2.460630 1.733010
vt -2.460630 -1.733010
vt -0.514506 1.991780
vt 0.115995 1.033800
vt 0.514506 1.991780
vt 1.733010 -2.460630
vt 2.460630 -1.897050
vt 2.460630 -1.733010
vt -2.460630 2.675620
vt -2.460630 1.035200
vt -2.296590 2.675620
vt 0.398511 1.943530
vt -0.398511 1.943530
vt 0.000000 0.985547
vt 1.897050 -2.460630
vt 2.460630 -2.460630
vt 2.296590 1.035200
vt 2.460630 1.035200
vt 2.460630 2.675620
vt -0.115995 2.675620
vt 0.115995 1.035200
vt 0.115995 2.675620
vt -0.115995 2.340710
vt 0.514506 1.382730
vt 0.115995 2.340710
vt 2.460630 -1.733010
vt 1.897050 -2.460630
vt 2.460630 -1.897050
vt 2.460630 -2.460630
vt -0.398511 1.430980
vt 0.398511 1.430980
vt 0.000000 2.388960
vt -0.514506 1.991780
vt 0.115995 1.033800
vt 0.514506 1.991780
vt -0.115995 2.675620
vt 0.115995 1.035200
vt 0.115995 2.675620
vt -0.115995 2.340710
vt 0.514506 1.382730
vt 0.115995 2.340710
vt -2.460630 2.675620
vt -2.460630 1.035200
vt -2.296590 2.675620
vt 0.398511 1.943530
vt -0.398511 1.943530
vt 0.000000 0.985547
vt -2.460630 -2.460630
vt -0.398511 1.430980
vt 0.398511 1.430980
vt 0.000000 2.388960
vt 1.897050 3.546780
vt 2.460630 3.546780
vt 2.460630 3.710830
vt 1.733010 3.546780
vt -1.733010 3.546780
vt 2.460630 3.546780
vt 2.460630 3.710830
vt -2.460630 3.710830
vt -1.733010 3.546780
vt -2.460630 3.546780
vt -1.897050 3.546780
vt 1.897050 3.546780
vt 1.733010 3.546780
vt -2.460630 3.546780
vt -2.460630 -2.460630
vt 2.460630 -2.460630
vt 2.460630 2.460630
vt 2.460630 1.733010
vt -1.897050 0.164042
vt -2.296590 1.035200
vt -1.733010 0.164042
vt -2.460630 1.947520
vt 1.897050 3.546780
vt 2.296590 2.675620
vt 1.733010 3.546780
vt 1.733010 0.164042
vt 1.897050 0.164042
vt 2.460630 0.999058
vt -2.460630 2.675620
vt -2.460630 2.116620
vt 2.460630 1.733010
vt 2.460630 0.000000
vt 1.733010 0.164042
vt 2.460630 0.164042
vt 1.897050 0.164042
vt 1.733010 0.164042
vt 2.460630 0.164042
vt 1.897050 0.164042
vt -2.460630 0.164042
vt -2.460630 0.000000
vt -2.460630 0.164042
vt -2.460630 2.205730
vt 2.296590 2.675620
vt -2.460630 -1.733010
vt -2.460630 1.733010
vt -1.733010 -2.460630
vt 1.733010 -2.460630
vt -0.115995 1.033800
vt -2.296590 1.035200
vt 2.296590 2.675620
vt -0.115995 1.035200
vt -0.514506 1.382730
vt -0.115995 1.033800
vt -0.115995 1.035200
vt -0.514506 1.382730
vt -1.733010 3.546780
vt -1.897050 3.546780
vt -1.897050 0.164042
vt -2.296590 1.035200
vt -1.733010 0.164042
vn -1.0000 0.0000 0.0000
vn 0.0000 0.0000 -1.0000
vn -0.0000 1.0000 0.0000
vn 0.0000 0.5432 -0.8396
vn 1.0000 0.0000 0.0000
vn 0.0000 -0.5432 0.8396
vn 0.0000 -0.0000 1.0000
vn 0.0000 0.5432 0.8396
vn 0.0000 -1.0000 -0.0000
vn -0.6430 -0.4160 -0.6430
vn -0.7071 0.0000 -0.7071
vn -0.6430 0.4160 -0.6430
vn 0.6430 -0.4160 -0.6430
vn 0.7071 0.0000 -0.7071
vn 0.6430 0.4160 -0.6430
usemtl Metal_Steel_Textured.020
s off
f 3/1/1 5/2/1 6/3/1
f 15/4/2 16/5/2 12/6/2
f 17/7/1 19/8/1 20/9/1
f 12/10/3 3/11/3 17/12/3
f 4/13/2 18/14/2 17/15/2
f 19/16/3 5/17/3 18/18/3
f 20/19/3 6/20/3 19/16/3
f 23/21/1 24/22/1 28/23/1
f 19/24/4 29/25/4 23/26/4
f 31/27/5 34/28/5 29/29/5
f 28/30/6 7/31/6 20/32/6
f 30/33/7 27/34/7 31/35/7
f 31/36/8 26/37/8 32/38/8
f 36/39/3 37/40/3 38/41/3
f 32/42/1 33/43/1 43/44/1
f 38/45/2 47/46/2 39/47/2
f 44/48/1 50/49/1 36/50/1
f 25/51/3 42/52/3 48/53/3
f 26/54/3 33/55/3 25/51/3
f 34/56/8 25/57/8 33/58/8
f 29/29/7 24/22/7 34/28/7
f 42/59/2 49/60/2 48/61/2
f 49/62/3 44/63/3 43/64/3
f 39/65/3 43/64/3 44/63/3
f 45/66/3 46/67/3 50/68/3
f 37/40/3 50/68/3 46/67/3
f 52/69/2 53/70/2 54/71/2
f 15/72/3 22/73/3 16/74/3
f 21/75/9 20/76/9 8/77/9
f 8/78/10 56/79/10 14/80/10
f 14/81/3 9/82/3 8/83/3
f 57/84/2 58/85/2 56/86/2
f 13/87/10 9/88/10 57/89/10
f 9/82/3 13/90/3 1/91/3
f 60/92/1 58/93/1 57/94/1
f 55/95/11 59/96/11 56/97/11
f 60/98/12 38/99/12 59/100/12
f 35/101/3 47/102/3 41/103/3
f 40/104/3 41/103/3 47/102/3
f 41/105/12 47/106/12 58/107/12
f 15/108/13 61/109/13 21/110/13
f 51/111/14 62/112/14 61/113/14
f 52/114/15 36/115/15 62/116/15
f 54/117/5 53/118/5 61/119/5
f 22/120/13 16/121/13 54/122/13
f 10/123/3 16/74/3 22/73/3
f 46/124/15 50/125/15 53/126/15
f 9/127/1 1/128/1 2/129/1
f 3/1/1 4/13/1 5/2/1
f 9/127/1 2/129/1 8/130/1
f 2/129/1 3/1/1 8/130/1
f 6/3/1 7/131/1 3/1/1
f 7/131/1 8/130/1 3/1/1
f 16/5/2 10/132/2 11/133/2
f 12/6/2 2/134/2 14/135/2
f 2/134/2 1/136/2 13/137/2
f 16/5/2 11/133/2 12/6/2
f 13/137/2 14/135/2 2/134/2
f 14/135/2 15/4/2 12/6/2
f 10/132/1 11/133/1 22/138/1
f 11/133/1 17/7/1 21/139/1
f 22/138/1 11/133/1 21/139/1
f 17/7/1 18/140/1 19/8/1
f 20/9/1 21/139/1 17/7/1
f 11/141/3 12/10/3 17/12/3
f 12/10/3 2/142/3 3/11/3
f 3/11/3 4/143/3 17/12/3
f 4/13/2 5/2/2 18/14/2
f 19/16/3 6/20/3 5/17/3
f 20/19/3 7/144/3 6/20/3
f 28/23/1 20/9/1 19/8/1
f 24/22/1 25/145/1 27/146/1
f 25/145/1 26/147/1 27/146/1
f 28/23/1 19/8/1 23/21/1
f 24/22/1 27/146/1 28/23/1
f 19/24/4 6/148/4 29/25/4
f 29/29/5 6/149/5 30/150/5
f 6/149/5 7/151/5 30/150/5
f 32/152/5 33/153/5 31/27/5
f 33/153/5 34/28/5 31/27/5
f 29/29/5 30/150/5 31/27/5
f 28/30/6 30/154/6 7/31/6
f 30/33/7 28/155/7 27/34/7
f 31/36/8 27/156/8 26/37/8
f 38/41/3 35/101/3 36/39/3
f 35/101/3 32/157/3 36/39/3
f 32/157/3 26/54/3 36/39/3
f 43/44/1 39/158/1 35/159/1
f 39/158/1 40/160/1 41/161/1
f 41/161/1 35/159/1 39/158/1
f 35/159/1 32/42/1 43/44/1
f 33/43/1 42/59/1 43/44/1
f 39/47/2 44/48/2 37/162/2
f 44/48/2 45/163/2 46/164/2
f 46/164/2 37/162/2 44/48/2
f 37/162/2 38/45/2 39/47/2
f 47/46/2 40/165/2 39/47/2
f 26/147/1 25/145/1 49/166/1
f 25/145/1 48/167/1 49/166/1
f 26/147/1 49/166/1 44/48/1
f 44/48/1 45/163/1 50/49/1
f 36/50/1 26/147/1 44/48/1
f 25/51/3 33/55/3 42/52/3
f 26/54/3 32/157/3 33/55/3
f 34/56/8 24/168/8 25/57/8
f 29/29/7 23/21/7 24/22/7
f 42/59/2 43/44/2 49/60/2
f 37/40/3 36/39/3 50/68/3
f 54/71/2 16/5/2 51/169/2
f 16/5/2 15/4/2 51/169/2
f 37/162/2 46/164/2 52/69/2
f 46/164/2 53/70/2 52/69/2
f 54/71/2 51/169/2 52/69/2
f 15/72/3 21/170/3 22/73/3
f 20/76/9 7/171/9 8/77/9
f 8/77/9 14/172/9 15/173/9
f 15/173/9 21/75/9 8/77/9
f 8/78/10 55/174/10 56/79/10
f 14/81/3 13/90/3 9/82/3
f 56/86/2 14/135/2 13/137/2
f 58/85/2 47/46/2 59/175/2
f 47/46/2 38/45/2 59/175/2
f 56/86/2 13/137/2 57/84/2
f 58/85/2 59/175/2 56/86/2
f 57/94/1 9/127/1 55/176/1
f 9/127/1 8/130/1 55/176/1
f 35/159/1 41/161/1 60/92/1
f 41/161/1 58/93/1 60/92/1
f 57/94/1 55/176/1 60/92/1
f 55/95/11 60/177/11 59/96/11
f 60/98/12 35/178/12 38/99/12
f 35/101/3 38/41/3 47/102/3
f 15/108/13 51/179/13 61/109/13
f 51/111/14 52/180/14 62/112/14
f 52/114/15 37/181/15 36/115/15
f 61/119/5 21/182/5 22/183/5
f 53/118/5 50/184/5 62/185/5
f 50/184/5 36/186/5 62/185/5
f 61/119/5 22/183/5 54/117/5
f 53/118/5 62/185/5 61/119/5
