# Blender v2.93.2 OBJ File: ''
# www.blender.org
mtllib 10.mtl
o 10_10.001
v 1.156440 0.100000 1.500000
v 1.500000 0.631060 1.500000
v 1.500000 0.631060 -1.500000
v 1.156440 0.100000 -1.500000
v 1.156440 2.162120 1.500000
v 1.056440 2.162120 1.500000
v 1.400000 1.631060 1.500000
v 1.400000 0.631060 1.500000
v 1.056440 0.100000 1.500000
v 1.500000 1.631060 1.500000
v 1.500000 2.162120 1.500000
v 1.500000 2.262120 1.500000
v -1.500000 2.262120 1.500000
v -1.500000 2.162120 1.500000
v -1.156440 2.162120 1.500000
v -1.056440 2.162120 1.500000
v 1.500000 2.262120 -1.500000
v 1.500000 2.162120 -1.500000
v -1.500000 2.262120 -1.500000
v -1.500000 2.162120 -1.500000
v 1.156440 2.162120 -1.500000
v 1.056440 2.162120 -1.500000
v -1.056440 2.162120 -1.500000
v -1.156440 2.162120 -1.500000
v -1.500000 1.631060 1.500000
v -1.500000 1.631060 -1.500000
v -1.500000 0.631060 1.500000
v -1.156440 0.100000 1.500000
v -1.056440 0.100000 1.500000
v -1.400000 0.631060 1.500000
v -1.400000 1.631060 1.500000
v -1.400000 1.631060 -1.500000
v -1.400000 0.631060 -1.500000
v -1.056440 0.100000 -1.500000
v -1.156440 0.100000 -1.500000
v -1.500000 0.631060 -1.500000
v 1.500000 -0.000000 1.500000
v 1.500000 0.100000 1.500000
v -1.500000 0.100000 1.500000
v -1.500000 -0.000000 1.500000
v 1.500000 0.000000 -1.500000
v 1.500000 0.100000 -1.500000
v -1.500000 0.000000 -1.500000
v -1.500000 0.100000 -1.500000
v 1.056440 0.100000 -1.500000
v 1.400000 0.631060 -1.500000
v 1.400000 1.631060 -1.500000
v 1.500000 1.631060 -1.500000
vt 2.460630 2.205730
vt -2.460630 1.168160
vt 2.460630 1.168160
vt 2.296590 1.035200
vt 2.460630 1.035200
vt 2.460630 2.675620
vt 1.733010 3.546780
vt 1.897050 3.546780
vt 2.460630 3.710830
vt -2.460630 3.710830
vt 2.460630 3.546780
vt 2.460630 3.710830
vt 2.460630 2.460630
vt -2.460630 -2.460630
vt 2.460630 -2.460630
vt 1.733010 3.546780
vt 1.897050 3.546780
vt 2.460630 3.710830
vt -2.460630 3.546780
vt -2.460630 3.710830
vt -1.897050 -2.460630
vt -2.460630 2.460630
vt -2.460630 -2.460630
vt 2.460630 1.947520
vt -2.460630 0.909955
vt 2.460630 0.909955
vt -2.460630 2.675620
vt -2.460630 1.035200
vt -2.296590 2.675620
vt -1.733010 -2.460630
vt -1.897050 2.460630
vt -2.460630 0.999058
vt 2.460630 2.036620
vt -2.460630 2.036620
vt -2.460630 1.035200
vt 2.460630 2.675620
vt -2.460630 2.675620
vt 2.460630 2.116620
vt -2.460630 1.079060
vt 2.460630 1.079060
vt 2.296590 1.035200
vt 2.460630 1.035200
vt 2.460630 2.675620
vt -1.733010 -2.460630
vt -1.897050 2.460630
vt -1.897050 -2.460630
vt -1.733010 0.164042
vt -1.897050 0.164042
vt -2.460630 0.000000
vt 2.460630 0.164042
vt -2.460630 0.000000
vt 2.460630 0.000000
vt -1.733010 0.164042
vt -1.897050 0.164042
vt -2.460630 0.000000
vt -2.460630 0.000000
vt 2.460630 0.164042
vt -2.460630 0.164042
vt -2.460630 2.460630
vt -2.460630 -2.460630
vt 2.460630 2.460630
vt 2.460630 -2.460630
vt -2.460630 2.460630
vt -2.460630 -2.460630
vt 2.460630 2.205730
vt -2.460630 1.168160
vt 2.460630 1.168160
vt 2.460630 2.675620
vt -2.460630 1.035200
vt 2.460630 1.035200
vt 1.733010 -2.460630
vt -1.733010 2.460630
vt 2.460630 2.116620
vt -2.460630 1.079060
vt 2.460630 1.079060
vt 2.460630 2.675620
vt -2.460630 1.035200
vt 2.460630 1.035200
vt -2.460630 0.999058
vt 2.460630 2.036620
vt -2.460630 2.036620
vt -2.460630 2.675620
vt -2.460630 1.035200
vt -2.296590 2.675620
vt 1.733010 2.460630
vt 1.897050 -2.460630
vt 1.897050 2.460630
vt 1.733010 -2.460630
vt -1.733010 2.460630
vt -1.733010 -2.460630
vt 2.460630 1.947520
vt -2.460630 0.909955
vt 2.460630 0.909955
vt 2.460630 -2.460630
vt 2.460630 2.460630
vt 1.733010 2.460630
vt 1.897050 -2.460630
vt 1.897050 2.460630
vt 2.460630 -2.460630
vt 2.460630 2.460630
vt -2.460630 2.205730
vt 2.296590 2.675620
vt 1.733010 0.164042
vt 1.897050 0.164042
vt 2.460630 3.546780
vt -1.733010 3.546780
vt -1.897050 3.546780
vt -2.460630 3.546780
vt -2.460630 2.460630
vt 2.460630 3.546780
vt -2.460630 3.710830
vt -1.733010 3.546780
vt -2.460630 3.546780
vt -1.897050 3.546780
vt -2.460630 1.947520
vt -2.296590 1.035200
vt -1.733010 2.460630
vt 2.460630 0.999058
vt 2.460630 1.035200
vt -2.460630 2.116620
vt 2.296590 2.675620
vt 1.733010 0.164042
vt 1.897050 0.164042
vt 2.460630 0.000000
vt 2.460630 0.164042
vt -2.460630 0.164042
vt -2.460630 0.164042
vt 2.460630 0.000000
vt 2.460630 0.164042
vt -2.460630 0.164042
vt 2.460630 0.000000
vt -2.460630 2.205730
vt -2.460630 2.675620
vt -2.460630 2.116620
vt -2.460630 2.675620
vt 2.460630 0.999058
vt -2.296590 1.035200
vt 1.733010 -2.460630
vt 1.733010 2.460630
vt -2.460630 1.947520
vn -0.8396 0.5432 0.0000
vn 0.0000 -0.0000 1.0000
vn 1.0000 0.0000 0.0000
vn 0.0000 1.0000 0.0000
vn 0.0000 0.0000 -1.0000
vn 0.8396 -0.5432 -0.0000
vn 0.8396 0.5432 0.0000
vn -1.0000 0.0000 0.0000
vn -0.8396 -0.5432 -0.0000
vn 0.0000 -1.0000 -0.0000
usemtl Metal_Steel_Textured.002
s off
f 2/1/1 4/2/1 1/3/1
f 8/4/2 2/5/2 10/6/2
f 6/7/2 5/8/2 12/9/2
f 12/10/3 18/11/3 17/12/3
f 17/13/4 13/14/4 12/15/4
f 23/16/5 24/17/5 19/18/5
f 14/19/3 19/18/3 13/20/3
f 15/21/4 20/22/4 14/23/4
f 15/24/1 26/25/1 25/26/1
f 25/27/2 27/28/2 31/29/2
f 16/30/4 24/31/4 15/21/4
f 31/32/6 23/33/6 16/34/6
f 30/35/3 32/36/3 31/37/3
f 33/38/7 29/39/7 34/40/7
f 33/41/5 36/42/5 26/43/5
f 29/44/4 35/45/4 28/46/4
f 29/47/2 28/48/2 40/49/2
f 42/50/3 37/51/3 41/52/3
f 45/53/5 4/54/5 41/55/5
f 43/56/8 39/57/8 44/58/8
f 43/59/4 40/60/4 41/61/4
f 37/62/4 41/61/4 40/60/4
f 28/46/4 44/63/4 39/64/4
f 36/65/7 28/66/7 35/67/7
f 25/68/8 36/69/8 27/70/8
f 9/71/4 34/72/4 29/44/4
f 8/73/1 45/74/1 9/75/1
f 7/76/8 46/77/8 8/78/8
f 47/79/9 6/80/9 22/81/9
f 48/82/5 3/83/5 47/84/5
f 22/85/4 5/86/4 21/87/4
f 16/88/10 22/89/10 6/90/10
f 21/91/7 10/92/7 48/93/7
f 21/87/4 11/94/4 18/95/4
f 10/6/8 3/83/8 2/5/8
f 45/96/4 1/97/4 4/98/4
f 4/98/4 38/99/4 42/100/4
f 2/1/1 3/101/1 4/2/1
f 10/6/2 5/8/2 7/102/2
f 5/8/2 6/7/2 7/102/2
f 9/103/2 1/104/2 8/4/2
f 1/104/2 2/5/2 8/4/2
f 10/6/2 7/102/2 8/4/2
f 5/8/2 11/105/2 12/9/2
f 12/9/2 13/20/2 16/106/2
f 13/20/2 14/19/2 15/107/2
f 15/107/2 16/106/2 13/20/2
f 16/106/2 6/7/2 12/9/2
f 12/10/3 11/108/3 18/11/3
f 17/13/4 19/109/4 13/14/4
f 24/17/5 20/110/5 19/18/5
f 19/18/5 17/111/5 22/112/5
f 17/111/5 18/113/5 21/114/5
f 21/114/5 22/112/5 17/111/5
f 22/112/5 23/16/5 19/18/5
f 14/19/3 20/110/3 19/18/3
f 15/21/4 24/31/4 20/22/4
f 15/24/1 24/115/1 26/25/1
f 31/29/2 16/106/2 15/107/2
f 27/28/2 28/48/2 30/116/2
f 28/48/2 29/47/2 30/116/2
f 31/29/2 15/107/2 25/27/2
f 27/28/2 30/116/2 31/29/2
f 16/30/4 23/117/4 24/31/4
f 31/32/6 32/118/6 23/33/6
f 30/35/3 33/119/3 32/36/3
f 33/38/7 30/120/7 29/39/7
f 26/43/5 24/17/5 32/121/5
f 24/17/5 23/16/5 32/121/5
f 34/122/5 35/123/5 33/41/5
f 35/123/5 36/42/5 33/41/5
f 26/43/5 32/121/5 33/41/5
f 29/44/4 34/72/4 35/45/4
f 40/49/2 37/124/2 9/103/2
f 37/124/2 38/125/2 1/104/2
f 1/104/2 9/103/2 37/124/2
f 9/103/2 29/47/2 40/49/2
f 28/48/2 39/126/2 40/49/2
f 42/50/3 38/127/3 37/51/3
f 41/55/5 43/128/5 34/122/5
f 43/128/5 44/129/5 35/123/5
f 35/123/5 34/122/5 43/128/5
f 34/122/5 45/53/5 41/55/5
f 4/54/5 42/130/5 41/55/5
f 43/56/8 40/131/8 39/57/8
f 28/46/4 35/45/4 44/63/4
f 36/65/7 27/132/7 28/66/7
f 25/68/8 26/133/8 36/69/8
f 9/71/4 45/96/4 34/72/4
f 8/73/1 46/134/1 45/74/1
f 7/76/8 47/135/8 46/77/8
f 47/79/9 7/136/9 6/80/9
f 47/84/5 22/112/5 21/114/5
f 3/83/5 4/54/5 46/137/5
f 4/54/5 45/53/5 46/137/5
f 47/84/5 21/114/5 48/82/5
f 3/83/5 46/137/5 47/84/5
f 22/85/4 6/138/4 5/86/4
f 16/88/10 23/139/10 22/89/10
f 21/91/7 5/140/7 10/92/7
f 21/87/4 5/86/4 11/94/4
f 10/6/8 48/82/8 3/83/8
f 45/96/4 9/71/4 1/97/4
f 4/98/4 1/97/4 38/99/4
