# Blender v2.93.2 OBJ File: ''
# www.blender.org
mtllib 11.mtl
o 11_11.001
v -1.400000 1.631060 -1.400000
v -1.056440 2.162120 -1.056440
v -1.056440 2.162120 1.500000
v -1.400000 1.631060 1.500000
v 1.400000 1.631060 -1.400000
v 1.056440 2.162120 -1.056440
v 1.400000 1.631060 1.500000
v 1.056440 2.162120 1.500000
v 1.400000 0.631060 -1.400000
v 1.400000 0.631060 1.500000
v -1.400000 0.631060 -1.400000
v -1.400000 0.631060 1.500000
v -1.156440 2.162120 1.500000
v -1.500000 1.631060 1.500000
v -1.500000 0.631060 1.500000
v -1.156440 0.100000 1.500000
v -1.056440 0.100000 1.500000
v 1.500000 2.162120 1.500000
v 1.500000 2.262120 1.500000
v -1.500000 2.262120 1.500000
v -1.500000 2.162120 1.500000
v 1.156440 2.162120 1.500000
v 1.500000 2.262120 -1.500000
v 1.500000 2.162120 -1.500000
v -1.500000 2.162120 -1.500000
v -1.500000 2.262120 -1.500000
v 1.156440 2.162120 -1.156440
v -1.156440 2.162120 -1.156440
v 1.500000 1.631060 -1.500000
v -1.500000 1.631060 -1.500000
v 1.500000 1.631060 1.500000
v 1.056440 0.100000 1.500000
v 1.156440 0.100000 1.500000
v 1.500000 0.631060 1.500000
v 1.056440 0.100000 -1.056440
v -1.056440 0.100000 -1.056440
v 1.500000 -0.000000 1.500000
v 1.500000 0.100000 1.500000
v -1.500000 0.100000 1.500000
v -1.500000 -0.000000 1.500000
v 1.500000 0.000000 -1.500000
v 1.500000 0.100000 -1.500000
v -1.500000 0.000000 -1.500000
v -1.500000 0.100000 -1.500000
v -1.156440 0.100000 -1.156440
v 1.156440 0.100000 -1.156440
v -1.500000 0.631060 -1.500000
v 1.500000 0.631060 -1.500000
vt 5.424160 -0.707768
vt 1.230520 -1.745330
vt 5.987740 -1.745330
vt -3.319500 0.031683
vt -7.349090 -1.005880
vt -2.755920 -1.005880
vt -5.424160 4.781020
vt -1.230520 3.743450
vt -1.230520 4.781020
vt -5.987740 1.035200
vt -1.230520 2.675620
vt -5.987740 2.675620
vt -2.755920 2.675620
vt -7.349090 1.035200
vt -2.755920 1.035200
vt 5.987740 2.675620
vt 1.230520 1.035200
vt 5.987740 1.035200
vt -7.510200 2.675620
vt -7.510200 1.035200
vt -7.346160 2.675620
vt -3.316570 3.546780
vt -3.152520 3.546780
vt -2.588950 3.710830
vt -13.152400 3.546780
vt -8.231150 3.710830
vt -13.152400 3.710830
vt 7.510200 3.710830
vt 2.588950 3.546780
vt 7.510200 3.546780
vt -13.152400 3.710830
vt -8.231150 3.546780
vt -8.231150 3.710830
vt 8.231150 2.588950
vt 13.152400 7.510200
vt 8.231150 7.510200
vt -5.588210 6.949560
vt -6.151780 7.513140
vt -6.151780 2.591880
vt 3.057960 -8.889440
vt 7.415650 -7.851880
vt 3.621540 -7.851880
vt 8.231150 3.652750
vt 12.588799 4.690320
vt 8.231150 4.690320
vt -2.752990 1.035200
vt -2.588950 1.035200
vt -2.588950 2.675620
vt -5.424160 -1.665330
vt -1.230520 -0.627768
vt -5.987740 -0.627768
vt -2.755920 4.121570
vt -6.785510 3.084000
vt -3.319500 3.084000
vt 5.424160 3.823450
vt 1.230520 4.861020
vt 1.230520 3.823450
vt 12.424800 3.316570
vt 8.231150 6.782580
vt 8.231150 3.316570
vt -6.782580 0.164042
vt -6.946630 0.164042
vt -7.510200 0.000000
vt 8.231150 0.000000
vt 13.152400 0.164042
vt 8.231150 0.164042
vt -13.152400 2.588950
vt -8.231150 2.588950
vt -13.152400 7.510200
vt -8.231150 7.510200
vt -8.231150 0.164042
vt -13.152400 0.000000
vt -8.231150 0.000000
vt 6.151780 2.591880
vt 6.151780 7.513140
vt 5.588210 3.155460
vt 7.510200 0.164042
vt 2.588950 0.000000
vt 7.510200 0.000000
vt 12.588799 3.910960
vt 8.231150 4.948530
vt 8.231150 3.910960
vt -7.415650 10.692100
vt -3.057960 11.729700
vt -7.979220 11.729700
vt -12.588799 -1.574640
vt -8.231150 -0.537072
vt -13.152400 -0.537072
vt 8.231150 2.675620
vt 13.152400 1.035200
vt 13.152400 2.675620
vt -3.057960 2.511580
vt -7.979220 0.871161
vt -3.057960 0.871161
vt 13.152400 1.035200
vt 8.231150 2.675620
vt 8.231150 1.035200
vt -12.588799 -0.795280
vt -8.231150 -1.832850
vt -8.231150 -0.795280
vt -12.424800 6.782580
vt -8.231150 3.316570
vt -8.231150 6.782580
vt 1.230520 -0.707768
vt -6.785510 0.031683
vt -5.987740 3.743450
vt -1.230520 1.035200
vt -7.349090 2.675620
vt 1.230520 2.675620
vt -6.782580 3.546780
vt -6.946630 3.546780
vt -7.346160 1.035200
vt -2.588950 3.546780
vt -7.510200 3.710830
vt -7.510200 3.546780
vt -8.231150 3.546780
vt 2.588950 3.710830
vt -13.152400 3.546780
vt 13.152400 2.588950
vt -1.230520 6.949560
vt -1.230520 7.513140
vt -1.230520 2.591880
vt -5.588210 3.155460
vt -1.230520 3.155460
vt 7.979220 -8.889440
vt 13.152400 3.652750
vt -2.752990 2.675620
vt -3.316570 0.164042
vt -3.152520 0.164042
vt -1.230520 -1.665330
vt -7.349090 4.121570
vt 5.987740 4.861020
vt 12.424800 6.782580
vt -2.588950 0.000000
vt -2.588950 0.164042
vt -7.510200 0.164042
vt 13.152400 0.000000
vt -13.152400 0.164042
vt 1.230520 3.155460
vt 1.230520 2.591880
vt 1.230520 7.513140
vt 5.588210 6.949560
vt 1.230520 6.949560
vt 2.588950 0.164042
vt 13.152400 4.948530
vt -3.621540 10.692100
vt -8.231150 -1.574640
vt 8.231150 1.035200
vt -7.979220 2.511580
vt 13.152400 2.675620
vt -13.152400 -1.832850
vt -12.424800 3.316570
vn 0.8396 -0.5432 -0.0000
vn 0.0000 -0.5432 0.8396
vn -0.8396 -0.5432 -0.0000
vn -1.0000 0.0000 0.0000
vn 0.0000 -0.0000 1.0000
vn 1.0000 0.0000 0.0000
vn 0.0000 0.0000 -1.0000
vn 0.0000 1.0000 0.0000
vn 0.0000 -1.0000 -0.0000
vn 0.0000 0.5432 -0.8396
vn 0.8396 0.5432 0.0000
vn -0.8396 0.5432 0.0000
vn 0.0000 0.5432 0.8396
usemtl _Metal_Steel_Textured_1.001
s off
f 2/1/1 4/2/1 1/3/1
f 6/4/2 1/5/2 5/6/2
f 6/7/3 7/8/3 8/9/3
f 9/10/4 7/11/4 5/12/4
f 5/13/5 11/14/5 9/15/5
f 1/16/6 12/17/6 11/18/6
f 14/19/5 15/20/5 4/21/5
f 8/22/5 22/23/5 19/24/5
f 24/25/4 19/26/4 23/27/4
f 26/28/7 24/29/7 25/30/7
f 26/31/4 21/32/4 20/33/4
f 19/34/8 26/35/8 20/36/8
f 28/37/9 25/38/9 24/39/9
f 29/40/10 28/41/10 27/42/10
f 31/43/11 27/44/11 22/45/11
f 10/46/5 34/47/5 31/48/5
f 35/49/12 10/50/12 9/51/12
f 9/52/13 36/53/13 35/54/13
f 36/55/11 12/56/11 17/57/11
f 35/58/8 17/59/8 32/60/8
f 17/61/5 16/62/5 40/63/5
f 37/64/6 42/65/6 38/66/6
f 41/67/9 37/68/9 43/69/9
f 40/70/9 43/69/9 37/68/9
f 39/71/4 43/72/4 40/73/4
f 42/74/8 44/75/8 46/76/8
f 44/77/7 41/78/7 43/79/7
f 45/80/11 15/81/11 16/82/11
f 45/83/13 48/84/13 47/85/13
f 46/86/12 34/87/12 48/88/12
f 31/89/6 48/90/6 29/91/6
f 29/92/5 47/93/5 48/94/5
f 47/95/6 14/96/6 15/97/6
f 28/98/12 14/99/12 13/100/12
f 2/101/9 8/102/9 3/103/9
f 2/1/1 3/104/1 4/2/1
f 6/4/2 2/105/2 1/5/2
f 6/7/3 5/106/3 7/8/3
f 9/10/4 10/107/4 7/11/4
f 5/13/5 1/108/5 11/14/5
f 1/16/6 4/109/6 12/17/6
f 4/21/5 3/110/5 13/111/5
f 15/20/5 16/62/5 12/112/5
f 16/62/5 17/61/5 12/112/5
f 4/21/5 13/111/5 14/19/5
f 15/20/5 12/112/5 4/21/5
f 22/23/5 18/113/5 19/24/5
f 19/24/5 20/114/5 3/110/5
f 20/114/5 21/115/5 13/111/5
f 13/111/5 3/110/5 20/114/5
f 3/110/5 8/22/5 19/24/5
f 24/25/4 18/116/4 19/26/4
f 26/28/7 23/117/7 24/29/7
f 26/31/4 25/118/4 21/32/4
f 19/34/8 23/119/8 26/35/8
f 28/37/9 13/120/9 21/121/9
f 24/39/9 18/122/9 27/123/9
f 18/122/9 22/124/9 27/123/9
f 28/37/9 21/121/9 25/38/9
f 24/39/9 27/123/9 28/37/9
f 29/40/10 30/125/10 28/41/10
f 31/43/11 29/126/11 27/44/11
f 31/48/5 22/23/5 7/127/5
f 22/23/5 8/22/5 7/127/5
f 32/128/5 33/129/5 10/46/5
f 33/129/5 34/47/5 10/46/5
f 31/48/5 7/127/5 10/46/5
f 35/49/12 32/130/12 10/50/12
f 9/52/13 11/131/13 36/53/13
f 36/55/11 11/132/11 12/56/11
f 35/58/8 36/133/8 17/59/8
f 40/63/5 37/134/5 32/128/5
f 37/134/5 38/135/5 33/129/5
f 33/129/5 32/128/5 37/134/5
f 32/128/5 17/61/5 40/63/5
f 16/62/5 39/136/5 40/63/5
f 37/64/6 41/137/6 42/65/6
f 39/71/4 44/138/4 43/72/4
f 33/139/8 38/140/8 46/76/8
f 38/140/8 42/74/8 46/76/8
f 44/75/8 39/141/8 45/142/8
f 39/141/8 16/143/8 45/142/8
f 44/75/8 45/142/8 46/76/8
f 44/77/7 42/144/7 41/78/7
f 45/80/11 47/145/11 15/81/11
f 45/83/13 46/146/13 48/84/13
f 46/86/12 33/147/12 34/87/12
f 31/89/6 34/148/6 48/90/6
f 29/92/5 30/149/5 47/93/5
f 47/95/6 30/150/6 14/96/6
f 28/98/12 30/151/12 14/99/12
f 2/101/9 6/152/9 8/102/9
