# Blender v2.93.2 OBJ File: ''
# www.blender.org
mtllib 3.mtl
o 3_3.001
v -1.500000 2.262120 -1.156440
v -1.500000 2.262120 1.500000
v 1.156440 2.262120 1.500000
v 1.500000 2.262120 1.500000
v 1.500000 2.262120 -1.500000
v -1.500000 2.262120 -1.500000
v -1.500000 2.162120 -1.500000
v -1.500000 2.162120 1.500000
v -1.500000 2.162120 1.156440
v -1.500000 2.162120 1.056440
v -1.500000 2.162120 -1.056440
v -1.500000 2.162120 -1.156440
v 1.500000 2.162120 -1.500000
v 1.500000 2.162120 1.500000
v 1.156440 2.162120 1.500000
v 1.056440 2.162120 1.500000
v -1.056440 2.162120 1.500000
v -1.156440 2.162120 1.500000
v -0.221779 2.162120 -1.156440
v 1.156440 2.162120 0.221779
v -0.221779 2.162120 -1.056440
v -1.500000 1.631060 -1.500000
v -1.500000 1.631060 -1.400000
v -1.500000 0.631060 -1.400000
v -1.500000 0.100000 -1.056440
v -1.500000 0.100000 -1.156440
v -1.500000 0.631060 -1.500000
v -0.221779 1.631060 -1.500000
v -0.221779 0.631060 -1.500000
v -0.221779 0.100000 -1.156440
v 1.156440 0.100000 0.221779
v 1.156440 0.100000 1.500000
v 1.500000 0.100000 1.500000
v 1.500000 0.100000 -1.500000
v -1.500000 0.100000 -1.500000
v -0.221779 0.100000 -1.056440
v 1.056440 0.100000 0.221779
v -1.500000 0.000000 -1.500000
v -1.500000 0.100000 1.056440
v -1.500000 0.100000 1.156440
v -1.500000 0.100000 1.500000
v -1.500000 -0.000000 1.500000
v 1.500000 0.000000 -1.500000
v 1.500000 -0.000000 1.500000
v -1.156440 0.100000 1.500000
v -1.056440 0.100000 1.500000
v 1.056440 0.100000 1.500000
v -1.500000 0.631060 1.500000
v -1.400000 1.631060 1.500000
v -1.400000 0.631060 1.500000
v -1.500000 1.631060 1.500000
v -1.500000 1.631060 1.400000
v 1.056440 2.162120 0.221779
v 1.500000 1.631060 1.500000
v 1.500000 0.631060 1.500000
v 1.400000 0.631060 1.500000
v 1.400000 1.631060 1.500000
v 1.500000 1.631060 0.221779
v 1.500000 0.631060 0.221779
v 1.400000 0.631060 0.221779
v 1.400000 1.631060 0.221779
v -0.221779 1.631060 -1.400000
v -0.221779 0.631060 -1.400000
v -1.500000 0.631060 1.400000
vt -2.460630 1.897050
vt 1.897050 -2.460630
vt 2.460630 2.460630
vt 1.733010 3.546780
vt 1.897050 3.546780
vt 1.897050 3.710830
vt -2.460630 3.710830
vt 2.460630 3.546780
vt 2.460630 3.710830
vt -2.460630 3.710830
vt 2.460630 3.546780
vt 2.460630 3.710830
vt -1.897050 3.710830
vt -2.460630 3.546780
vt -1.897050 3.546780
vt -0.363811 1.897050
vt 1.897050 -0.363811
vt 2.460630 2.460630
vt -2.460630 1.733010
vt -2.460630 1.897050
vt 2.460630 2.675620
vt 2.296590 1.035200
vt 2.460630 1.035200
vt 2.460630 0.909955
vt 0.363811 1.947520
vt 0.363811 0.909955
vt 0.363811 2.675620
vt 0.363811 1.035200
vt -2.460630 2.205730
vt -0.363811 1.168160
vt -0.363811 2.205730
vt -0.363811 1.897050
vt 1.897050 -0.363811
vt 2.460630 2.460630
vt -0.363811 1.733010
vt -2.460630 1.733010
vt -2.460630 1.897050
vt -1.733010 0.164042
vt -1.897050 0.164042
vt -2.460630 0.000000
vt -2.460630 0.164042
vt 2.460630 0.000000
vt 2.460630 0.164042
vt -2.460630 0.164042
vt 2.460630 0.000000
vt 2.460630 0.164042
vt -1.733010 0.164042
vt -1.897050 0.164042
vt -2.460630 0.000000
vt -2.460630 -2.460630
vt -1.897050 -2.460630
vt -2.460630 -1.897050
vt -0.398511 1.430980
vt 0.398511 1.430980
vt 0.000000 2.388960
vt -1.733010 -2.460630
vt 2.296590 1.035200
vt 2.460630 1.035200
vt 2.460630 2.675620
vt -2.460630 -1.733010
vt -1.897050 -2.460630
vt -1.733010 -2.460630
vt -0.514506 1.991780
vt 0.115995 1.033800
vt 0.514506 1.991780
vt 2.460630 -1.733010
vt 2.460630 1.733010
vt 0.363811 1.733010
vt 1.897050 -2.460630
vt 1.733010 -0.363811
vt 1.733010 -2.460630
vt -2.460630 2.675620
vt -2.460630 1.035200
vt -2.296590 2.675620
vt -2.460630 1.947520
vt -0.363811 0.909955
vt -0.363811 1.947520
vt 2.460630 1.035200
vt 0.363811 2.675620
vt 0.363811 1.035200
vt 2.460630 1.168160
vt 0.363811 2.205730
vt 0.363811 1.168160
vt 1.897050 -2.460630
vt 1.733010 -0.363811
vt 1.733010 -2.460630
vt -2.460630 2.675620
vt -2.460630 1.035200
vt -2.296590 2.675620
vt -0.363811 1.733010
vt 1.997180 1.816350
vt -1.598670 2.774340
vt -1.997180 1.816350
vt -1.997180 2.675620
vt 1.997180 1.035200
vt 1.997180 2.675620
vt -1.997180 1.558160
vt 1.598670 0.600176
vt 1.997180 1.558160
vt 2.296590 1.035200
vt 2.460630 1.035200
vt 2.460630 2.675620
vt 1.881190 1.864610
vt -1.482680 2.822590
vt -1.881190 1.864610
vt -1.881190 2.675620
vt 1.881190 1.035200
vt 1.881190 2.675620
vt -0.363811 1.035200
vt -2.460630 2.675620
vt -2.460630 1.035200
vt -2.460630 2.116620
vt -0.363811 1.079060
vt -0.363811 2.116620
vt -2.460630 -1.733010
vt 2.460630 1.079060
vt 0.363811 2.116620
vt 0.363811 1.079060
vt 2.460630 1.035200
vt 0.363811 2.675620
vt 0.363811 1.035200
vt 0.363811 2.036620
vt 2.460630 0.999058
vt 2.460630 2.036620
vt 1.881190 1.509910
vt -1.482680 0.551923
vt 1.482680 0.551923
vt -0.115995 2.340710
vt 0.514506 1.382730
vt 0.115995 2.340710
vt -0.115995 2.675620
vt 0.115995 1.035200
vt 0.115995 2.675620
vt -2.460630 2.675620
vt -2.460630 1.035200
vt -2.296590 2.675620
vt 0.398511 1.943530
vt -0.398511 1.943530
vt 0.000000 0.985547
vt -2.460630 -1.897050
vt -2.460630 -2.460630
vt -0.363811 0.999058
vt -2.460630 2.036620
vt -2.460630 0.999058
vt 2.460630 -2.460630
vt 2.460630 2.460630
vt -2.460630 -2.460630
vt -2.460630 2.460630
vt -2.460630 2.460630
vt -2.460630 -2.460630
vt 2.460630 -2.460630
vt -2.460630 3.710830
vt -1.733010 3.546780
vt -2.460630 3.546780
vt -1.897050 3.546780
vt -2.460630 3.546780
vt 1.897050 3.546780
vt 2.460630 3.546780
vt 2.460630 3.710830
vt 1.733010 3.546780
vt -1.733010 3.546780
vt -2.460630 2.460630
vt 2.460630 -2.460630
vt 2.296590 2.675620
vt 1.733010 0.164042
vt 1.897050 0.164042
vt 2.460630 1.947520
vt -2.460630 1.168160
vt 2.460630 -2.460630
vt -2.460630 2.460630
vt -2.460630 0.164042
vt -2.460630 0.000000
vt 2.460630 0.000000
vt 1.733010 0.164042
vt 2.460630 0.164042
vt 1.897050 0.164042
vt 2.296590 2.675620
vt -0.115995 1.033800
vt -1.733010 -0.363811
vt -1.733010 -2.460630
vt 1.733010 -2.460630
vt -2.296590 1.035200
vt -2.460630 0.909955
vt 2.460630 2.675620
vt 2.460630 2.205730
vt -1.733010 3.546780
vt -1.897050 3.546780
vt -1.897050 0.164042
vt -2.296590 1.035200
vt -1.733010 0.164042
vt 1.598670 2.774340
vt -1.997180 1.035200
vt -1.598670 0.600176
vt 1.897050 3.546780
vt 2.296590 2.675620
vt 1.733010 3.546780
vt 1.733010 0.164042
vt 1.897050 0.164042
vt 1.482680 2.822590
vt -1.881190 1.035200
vt -0.363811 2.675620
vt -2.460630 1.079060
vt 2.460630 2.116620
vt 2.460630 2.675620
vt 0.363811 0.999058
vt -1.881190 1.509910
vt -0.514506 1.382730
vt -0.115995 1.035200
vt -2.296590 1.035200
vt -0.363811 2.036620
vn 0.0000 1.0000 0.0000
vn 1.0000 0.0000 0.0000
vn 0.0000 0.0000 -1.0000
vn 0.0000 0.5432 -0.8396
vn 0.0000 0.5432 0.8396
vn 0.6430 0.4160 -0.6430
vn 0.6430 -0.4160 -0.6430
vn 0.0000 -1.0000 -0.0000
vn 0.8396 0.5432 0.0000
vn -1.0000 0.0000 0.0000
vn -0.8396 0.5432 0.0000
vn 0.7071 0.0000 -0.7071
vn -0.6430 0.4160 0.6430
vn -0.6430 -0.4160 0.6430
vn -0.7071 -0.0000 0.7071
vn 0.0000 -0.0000 1.0000
vn -0.8396 -0.5432 0.0000
vn 0.0000 -0.5432 0.8396
usemtl Metal_Steel_Textured.016
s off
f 1/1/1 3/2/1 5/3/1
f 11/4/2 12/5/2 1/6/2
f 5/7/3 7/8/3 6/9/3
f 4/10/2 13/11/2 5/12/2
f 3/13/3 14/14/3 15/15/3
f 19/16/1 20/17/1 13/18/1
f 11/19/1 19/16/1 12/20/1
f 22/21/2 24/22/2 27/23/2
f 22/24/4 19/25/4 28/26/4
f 27/23/3 28/27/3 29/28/3
f 27/29/5 30/30/5 29/31/5
f 30/32/1 31/33/1 34/34/1
f 36/35/1 31/33/1 30/32/1
f 25/36/1 30/32/1 26/37/1
f 39/38/2 40/39/2 42/40/2
f 34/41/3 38/42/3 35/43/3
f 33/44/2 43/45/2 34/46/2
f 47/47/3 32/48/3 44/49/3
f 41/50/1 45/51/1 40/52/1
f 45/53/6 40/54/6 48/55/6
f 46/56/1 40/52/1 45/51/1
f 50/57/3 48/58/3 51/59/3
f 10/60/1 18/61/1 17/62/1
f 17/63/7 52/64/7 10/65/7
f 10/66/8 11/67/8 21/68/8
f 15/69/1 53/70/1 16/71/1
f 54/72/3 55/73/3 57/74/3
f 15/75/9 58/76/9 20/77/9
f 55/78/10 58/79/10 59/80/10
f 32/81/11 59/82/11 31/83/11
f 32/84/1 37/85/1 47/86/1
f 58/87/3 59/88/3 61/89/3
f 20/17/1 21/90/1 53/70/1
f 28/91/6 20/92/6 58/93/6
f 58/94/12 29/95/12 28/96/12
f 29/97/13 31/98/13 59/99/13
f 63/100/2 29/101/2 28/102/2
f 61/103/14 21/104/14 62/105/14
f 62/106/15 60/107/15 61/108/15
f 63/109/16 23/110/16 24/111/16
f 24/112/5 36/113/5 63/114/5
f 46/56/1 36/35/1 39/115/1
f 47/116/11 60/117/11 37/118/11
f 56/119/10 61/120/10 60/121/10
f 53/122/17 57/123/17 16/124/17
f 60/125/13 36/126/13 37/127/13
f 50/128/6 39/129/6 64/130/6
f 49/131/12 64/132/12 52/133/12
f 51/134/2 48/135/2 52/136/2
f 9/137/7 18/138/7 51/139/7
f 18/61/1 9/140/1 8/141/1
f 62/142/18 11/143/18 23/144/18
f 44/145/1 43/146/1 42/147/1
f 43/146/1 38/148/1 42/147/1
f 6/149/1 1/1/1 5/3/1
f 1/1/1 2/150/1 3/2/1
f 3/2/1 4/151/1 5/3/1
f 12/5/2 7/8/2 6/9/2
f 1/6/2 2/152/2 10/153/2
f 2/152/2 8/154/2 9/155/2
f 12/5/2 6/9/2 1/6/2
f 9/155/2 10/153/2 2/152/2
f 10/153/2 11/4/2 1/6/2
f 5/7/3 13/156/3 7/8/3
f 4/10/2 14/14/2 13/11/2
f 18/157/3 8/158/3 2/159/3
f 3/13/3 4/10/3 14/14/3
f 18/157/3 2/159/3 17/160/3
f 2/159/3 3/13/3 17/160/3
f 15/15/3 16/161/3 3/13/3
f 16/161/3 17/160/3 3/13/3
f 7/162/1 12/20/1 19/16/1
f 20/17/1 15/69/1 14/163/1
f 13/18/1 7/162/1 19/16/1
f 20/17/1 14/163/1 13/18/1
f 11/19/1 21/90/1 19/16/1
f 22/21/2 12/5/2 23/164/2
f 12/5/2 11/4/2 23/164/2
f 25/165/2 26/166/2 24/22/2
f 26/166/2 27/23/2 24/22/2
f 22/21/2 23/164/2 24/22/2
f 22/24/4 12/167/4 19/25/4
f 27/23/3 22/21/3 28/27/3
f 27/29/5 26/168/5 30/30/5
f 31/33/1 32/84/1 33/169/1
f 34/34/1 35/170/1 30/32/1
f 35/170/1 26/37/1 30/32/1
f 31/33/1 33/169/1 34/34/1
f 36/35/1 37/85/1 31/33/1
f 25/36/1 36/35/1 30/32/1
f 42/40/2 38/42/2 25/165/2
f 38/42/2 35/43/2 26/166/2
f 26/166/2 25/165/2 38/42/2
f 25/165/2 39/38/2 42/40/2
f 40/39/2 41/171/2 42/40/2
f 34/41/3 43/172/3 38/42/3
f 33/44/2 44/49/2 43/45/2
f 44/49/3 42/173/3 46/174/3
f 42/173/3 41/175/3 45/176/3
f 45/176/3 46/174/3 42/173/3
f 46/174/3 47/47/3 44/49/3
f 32/48/3 33/44/3 44/49/3
f 46/56/1 39/115/1 40/52/1
f 51/59/3 18/157/3 49/177/3
f 18/157/3 17/160/3 49/177/3
f 46/174/3 45/176/3 50/57/3
f 45/176/3 48/58/3 50/57/3
f 51/59/3 49/177/3 50/57/3
f 10/60/1 9/140/1 18/61/1
f 17/63/7 49/178/7 52/64/7
f 21/68/8 53/179/8 10/66/8
f 53/179/8 16/180/8 17/181/8
f 10/66/8 53/179/8 17/181/8
f 15/69/1 20/17/1 53/70/1
f 16/161/3 15/15/3 57/74/3
f 15/15/3 54/72/3 57/74/3
f 55/73/3 32/48/3 56/182/3
f 32/48/3 47/47/3 56/182/3
f 55/73/3 56/182/3 57/74/3
f 15/75/9 54/183/9 58/76/9
f 55/78/10 54/184/10 58/79/10
f 32/81/11 55/185/11 59/82/11
f 32/84/1 31/33/1 37/85/1
f 61/89/3 53/186/3 20/187/3
f 59/88/3 31/188/3 60/189/3
f 31/188/3 37/190/3 60/189/3
f 61/89/3 20/187/3 58/87/3
f 59/88/3 60/189/3 61/89/3
f 20/17/1 19/16/1 21/90/1
f 28/91/6 19/191/6 20/92/6
f 58/94/12 59/192/12 29/95/12
f 29/97/13 30/193/13 31/98/13
f 28/102/2 19/194/2 62/195/2
f 19/194/2 21/196/2 62/195/2
f 36/197/2 30/198/2 63/100/2
f 30/198/2 29/101/2 63/100/2
f 28/102/2 62/195/2 63/100/2
f 61/103/14 53/199/14 21/104/14
f 62/106/15 63/200/15 60/107/15
f 63/109/16 62/201/16 23/110/16
f 24/112/5 25/202/5 36/113/5
f 46/56/1 47/86/1 37/85/1
f 37/85/1 36/35/1 46/56/1
f 36/35/1 25/36/1 39/115/1
f 47/116/11 56/203/11 60/117/11
f 56/119/10 57/204/10 61/120/10
f 53/122/17 61/205/17 57/123/17
f 60/125/13 63/206/13 36/126/13
f 50/128/6 46/207/6 39/129/6
f 49/131/12 50/208/12 64/132/12
f 52/136/2 10/153/2 9/155/2
f 48/135/2 40/39/2 64/209/2
f 40/39/2 39/38/2 64/209/2
f 52/136/2 9/155/2 51/134/2
f 48/135/2 64/209/2 52/136/2
f 62/142/18 21/210/18 11/143/18
