# Blender v2.93.2 OBJ File: ''
# www.blender.org
mtllib 4.mtl
o 4_4.001
v 1.500000 2.162120 -1.056440
v 1.500000 2.162120 -1.156440
v 1.500000 1.631060 -1.500000
v 1.500000 0.631060 -1.500000
v 1.500000 0.100000 -1.156440
v 1.500000 0.100000 -1.056440
v 1.500000 0.631060 -1.400000
v 1.500000 1.631060 -1.400000
v 1.156440 2.162120 -1.500000
v 1.056440 2.162120 -1.500000
v 1.400000 1.631060 -1.500000
v 1.400000 0.631060 -1.500000
v 1.056440 0.100000 -1.500000
v 1.156440 0.100000 -1.500000
v 1.500000 2.162120 -1.500000
v 1.500000 2.262120 -1.500000
v 1.156440 2.262120 -1.500000
v -1.500000 2.262120 -1.500000
v -1.500000 2.162120 -1.500000
v -1.156440 2.162120 -1.500000
v -1.056440 2.162120 -1.500000
v 1.500000 2.262120 1.500000
v 1.500000 2.162120 1.500000
v 1.500000 2.162120 1.156440
v 1.500000 2.162120 1.056440
v -1.500000 2.262120 1.156440
v -1.500000 2.262120 1.500000
v -1.500000 2.162120 1.500000
v -1.500000 2.162120 1.156440
v -1.500000 2.162120 1.056440
v -1.500000 2.162120 -1.056440
v -1.500000 2.162120 -1.156440
v 1.500000 1.631060 1.500000
v 1.500000 0.631060 1.500000
v 1.500000 0.100000 1.156440
v 1.500000 0.100000 1.056440
v 1.500000 0.631060 1.400000
v 1.500000 1.631060 1.400000
v -1.500000 1.631060 1.500000
v -1.500000 1.631060 1.400000
v -1.500000 0.631060 1.400000
v -1.500000 0.100000 1.056440
v -1.500000 0.100000 1.156440
v -1.500000 0.631060 1.500000
v 1.500000 0.100000 1.500000
v 1.500000 -0.000000 1.500000
v 1.500000 0.000000 -1.500000
v 1.500000 0.100000 -1.500000
v -1.500000 0.100000 1.500000
v -1.500000 0.000000 -1.500000
v -1.500000 0.100000 -1.500000
v -1.500000 0.100000 -1.156440
v -1.500000 0.100000 -1.056440
v -1.500000 -0.000000 1.500000
v -1.056440 0.100000 -1.500000
v -1.156440 0.100000 -1.500000
v -1.500000 1.631060 -1.400000
v -1.400000 1.631060 -1.500000
v -1.500000 0.631060 -1.400000
v -1.500000 0.631060 -1.500000
v -1.500000 1.631060 -1.500000
v -1.400000 0.631060 -1.500000
vt -2.460630 2.675620
vt -2.460630 1.035200
vt -2.296590 2.675620
vt 1.733010 2.460630
vt 2.460630 1.897050
vt 1.897050 2.460630
vt 2.296590 1.035200
vt 2.460630 1.035200
vt 2.460630 2.675620
vt 1.733010 3.546780
vt 1.897050 3.546780
vt 1.897050 3.710830
vt -2.460630 3.710830
vt -1.897050 3.546780
vt -1.733010 3.546780
vt 1.897050 2.460630
vt -2.460630 -1.897050
vt 2.460630 -2.460630
vt -1.897050 3.710830
vt -2.460630 3.546780
vt -1.897050 3.546780
vt -2.460630 3.710830
vt 2.460630 3.546780
vt 2.460630 3.710830
vt 2.460630 -1.897050
vt -2.460630 -2.460630
vt 2.460630 -2.460630
vt 2.460630 -1.733010
vt -2.460630 -1.897050
vt -2.460630 2.675620
vt -2.460630 1.035200
vt -2.296590 2.675620
vt 2.460630 1.947520
vt -2.460630 0.909955
vt 2.460630 0.909955
vt 2.296590 1.035200
vt 2.460630 1.035200
vt 2.460630 2.675620
vt -2.460630 0.999058
vt 2.460630 2.036620
vt -2.460630 2.036620
vt 2.460630 2.675620
vt -2.460630 1.035200
vt 2.460630 1.035200
vt 2.460630 2.116620
vt -2.460630 1.079060
vt 2.460630 1.079060
vt 2.460630 -1.733010
vt -2.460630 -1.897050
vt 2.460630 -1.897050
vt 2.460630 0.000000
vt 1.897050 0.164042
vt 1.733010 0.164042
vt -2.460630 -2.460630
vt 2.460630 -2.460630
vt 2.460630 2.205730
vt -2.460630 1.168160
vt 2.460630 1.168160
vt -1.733010 0.164042
vt -1.897050 0.164042
vt -2.460630 0.000000
vt -1.733010 0.164042
vt -1.897050 0.164042
vt -2.460630 0.000000
vt 2.460630 2.460630
vt 1.897050 2.460630
vt 2.460630 1.897050
vt 1.733010 2.460630
vt 2.460630 1.733010
vt -1.733010 2.460630
vt -0.115995 2.340710
vt 0.514506 1.382730
vt 0.115995 2.340710
vt -0.115995 2.675620
vt 0.115995 1.035200
vt 0.115995 2.675620
vt -0.514506 1.991780
vt 0.115995 1.033800
vt 0.514506 1.991780
vt -2.460630 1.733010
vt -2.460630 -1.733010
vt 2.460630 1.733010
vt -1.733010 2.460630
vt -2.460630 1.897050
vt -2.460630 1.733010
vt -0.514506 1.991780
vt 0.115995 1.033800
vt 0.514506 1.991780
vt 2.296590 1.035200
vt 2.460630 1.035200
vt 2.460630 2.675620
vt -0.115995 2.675620
vt 0.115995 1.035200
vt 0.115995 2.675620
vt -0.115995 2.340710
vt 0.514506 1.382730
vt 0.115995 2.340710
vt -2.460630 1.733010
vt -1.897050 2.460630
vt -2.460630 1.897050
vt -2.460630 2.675620
vt -2.460630 1.035200
vt -2.296590 2.675620
vt 0.398511 1.943530
vt -0.398511 1.943530
vt 0.000000 0.985547
vt -1.897050 2.460630
vt -2.460630 2.460630
vt -0.398511 1.430980
vt 0.398511 1.430980
vt 0.000000 2.388960
vt -2.460630 2.460630
vt -0.398511 1.430980
vt 0.398511 1.430980
vt 0.000000 2.388960
vt -2.460630 2.460630
vt -2.460630 -2.460630
vt 2.460630 2.460630
vt 2.460630 -2.460630
vt -2.460630 0.164042
vt 2.460630 0.000000
vt 2.460630 0.164042
vt 2.460630 2.460630
vt 0.398511 1.943530
vt -0.398511 1.943530
vt 0.000000 0.985547
vt -1.733010 3.546780
vt -1.897050 3.546780
vt -1.897050 0.164042
vt -2.296590 1.035200
vt -1.733010 0.164042
vt 2.460630 1.733010
vt 2.296590 2.675620
vt 1.733010 0.164042
vt 1.897050 0.164042
vt 2.460630 3.546780
vt 2.460630 3.710830
vt -2.460630 3.710830
vt -1.733010 3.546780
vt -2.460630 3.546780
vt -1.897050 3.546780
vt 1.897050 3.546780
vt 1.733010 3.546780
vt -2.460630 3.546780
vt 2.460630 2.460630
vt -2.460630 2.460630
vt -2.460630 -2.460630
vt 1.897050 3.546780
vt 2.460630 3.546780
vt 2.460630 3.710830
vt 1.733010 3.546780
vt -1.733010 3.546780
vt -2.460630 -1.733010
vt -1.897050 0.164042
vt -2.296590 1.035200
vt -1.733010 0.164042
vt -2.460630 1.947520
vt 1.897050 3.546780
vt 2.296590 2.675620
vt 1.733010 3.546780
vt 1.733010 0.164042
vt 1.897050 0.164042
vt 2.460630 0.999058
vt -2.460630 2.675620
vt -2.460630 2.116620
vt -2.460630 -1.733010
vt -2.460630 0.000000
vt -2.460630 0.164042
vt 2.460630 0.164042
vt -2.460630 2.205730
vt 2.460630 0.000000
vt 1.733010 0.164042
vt 2.460630 0.164042
vt 1.897050 0.164042
vt -2.460630 0.164042
vt -0.514506 1.382730
vt -0.115995 1.035200
vt -0.115995 1.033800
vt 2.460630 -1.733010
vt 1.733010 2.460630
vt -1.733010 2.460630
vt -0.115995 1.033800
vt 2.296590 2.675620
vt -0.115995 1.035200
vt -0.514506 1.382730
vt -2.296590 1.035200
vn -1.0000 0.0000 0.0000
vn 0.0000 1.0000 -0.0000
vn 0.0000 -0.0000 1.0000
vn 1.0000 0.0000 0.0000
vn 0.0000 0.5432 0.8396
vn 0.0000 -0.5432 -0.8396
vn 0.0000 0.0000 -1.0000
vn 0.0000 0.5432 -0.8396
vn -0.6430 0.4160 0.6430
vn -0.7071 0.0000 0.7071
vn -0.6430 -0.4160 0.6430
vn 0.0000 -1.0000 -0.0000
vn 0.6430 -0.4160 0.6430
vn 0.7071 -0.0000 0.7071
vn 0.6430 0.4160 0.6430
usemtl Metal_Steel_Textured.014
s off
f 3/1/1 4/2/1 8/3/1
f 10/4/2 2/5/2 9/6/2
f 12/7/3 4/8/3 3/9/3
f 10/10/3 9/11/3 17/12/3
f 22/13/4 24/14/4 25/15/4
f 17/16/2 26/17/2 22/18/2
f 26/19/4 28/20/4 29/21/4
f 27/22/3 23/23/3 22/24/3
f 24/25/2 28/26/2 23/27/2
f 25/28/2 29/29/2 24/25/2
f 33/30/4 34/31/4 38/32/4
f 24/33/5 39/34/5 33/35/5
f 41/36/1 44/37/1 39/38/1
f 38/39/6 30/40/6 25/41/6
f 40/42/7 37/43/7 41/44/7
f 41/45/8 36/46/8 42/47/8
f 36/48/2 43/49/2 35/50/2
f 47/51/4 5/52/4 6/53/4
f 35/50/2 49/54/2 45/55/2
f 44/56/8 35/57/8 43/58/8
f 39/38/7 34/31/7 44/37/7
f 42/59/4 43/60/4 54/61/4
f 55/62/3 56/63/3 50/64/3
f 48/65/2 14/66/2 5/67/2
f 13/68/2 5/67/2 14/66/2
f 6/69/2 13/68/2 55/70/2
f 12/71/9 6/72/9 7/73/9
f 11/74/10 7/75/10 8/76/10
f 10/77/11 8/78/11 1/79/11
f 1/80/12 25/81/12 31/82/12
f 21/83/2 32/84/2 31/85/2
f 31/86/13 58/87/13 21/88/13
f 59/89/4 60/90/4 61/91/4
f 57/92/14 62/93/14 58/94/14
f 59/95/15 55/96/15 62/97/15
f 53/98/2 56/99/2 52/100/2
f 61/101/3 60/102/3 58/103/3
f 20/104/13 32/105/13 61/106/13
f 32/84/2 20/107/2 19/108/2
f 52/109/15 56/110/15 60/111/15
f 51/112/2 52/100/2 56/99/2
f 14/113/9 5/114/9 4/115/9
f 50/116/2 54/117/2 47/118/2
f 46/119/2 47/118/2 54/117/2
f 49/120/3 46/121/3 45/122/3
f 15/123/2 9/6/2 2/5/2
f 2/124/11 9/125/11 3/126/11
f 8/3/1 1/127/1 2/128/1
f 4/2/1 5/129/1 7/130/1
f 5/129/1 6/131/1 7/130/1
f 8/3/1 2/128/1 3/1/1
f 4/2/1 7/130/1 8/3/1
f 10/4/2 1/132/2 2/5/2
f 3/9/3 9/11/3 11/133/3
f 9/11/3 10/10/3 11/133/3
f 13/134/3 14/135/3 12/7/3
f 14/135/3 4/8/3 12/7/3
f 3/9/3 11/133/3 12/7/3
f 9/11/3 15/136/3 16/137/3
f 17/12/3 18/138/3 21/139/3
f 18/138/3 19/140/3 20/141/3
f 9/11/3 16/137/3 17/12/3
f 20/141/3 21/139/3 18/138/3
f 21/139/3 10/10/3 17/12/3
f 15/136/4 16/137/4 2/142/4
f 16/137/4 22/13/4 1/143/4
f 2/142/4 16/137/4 1/143/4
f 22/13/4 23/144/4 24/14/4
f 25/15/4 1/143/4 22/13/4
f 16/145/2 17/16/2 22/18/2
f 17/16/2 18/146/2 26/17/2
f 26/17/2 27/147/2 22/18/2
f 32/148/4 19/149/4 18/150/4
f 26/19/4 27/22/4 28/20/4
f 32/148/4 18/150/4 31/151/4
f 18/150/4 26/19/4 31/151/4
f 29/21/4 30/152/4 26/19/4
f 30/152/4 31/151/4 26/19/4
f 27/22/3 28/20/3 23/23/3
f 24/25/2 29/29/2 28/26/2
f 25/28/2 30/153/2 29/29/2
f 38/32/4 25/15/4 24/14/4
f 34/31/4 35/154/4 37/155/4
f 35/154/4 36/156/4 37/155/4
f 38/32/4 24/14/4 33/30/4
f 34/31/4 37/155/4 38/32/4
f 24/33/5 29/157/5 39/34/5
f 39/38/1 29/158/1 40/159/1
f 29/158/1 30/160/1 40/159/1
f 42/161/1 43/162/1 41/36/1
f 43/162/1 44/37/1 41/36/1
f 39/38/1 40/159/1 41/36/1
f 38/39/6 40/163/6 30/40/6
f 40/42/7 38/164/7 37/43/7
f 41/45/8 37/165/8 36/46/8
f 36/48/2 42/166/2 43/49/2
f 36/156/4 35/154/4 46/167/4
f 35/154/4 45/168/4 46/167/4
f 36/156/4 46/167/4 47/51/4
f 47/51/4 48/169/4 5/52/4
f 6/53/4 36/156/4 47/51/4
f 35/50/2 43/49/2 49/54/2
f 44/56/8 34/170/8 35/57/8
f 39/38/7 33/30/7 34/31/7
f 54/61/4 50/171/4 53/172/4
f 50/171/4 51/173/4 52/174/4
f 52/174/4 53/172/4 50/171/4
f 53/172/4 42/59/4 54/61/4
f 43/60/4 49/120/4 54/61/4
f 50/64/3 47/51/3 13/134/3
f 47/51/3 48/169/3 14/135/3
f 14/135/3 13/134/3 47/51/3
f 13/134/3 55/62/3 50/64/3
f 56/63/3 51/175/3 50/64/3
f 13/68/2 6/69/2 5/67/2
f 55/70/2 53/98/2 6/69/2
f 53/98/2 42/166/2 6/69/2
f 42/166/2 36/48/2 6/69/2
f 12/71/9 13/176/9 6/72/9
f 11/74/10 12/177/10 7/75/10
f 10/77/11 11/178/11 8/78/11
f 25/81/12 30/179/12 31/82/12
f 31/82/12 21/180/12 10/181/12
f 10/181/12 1/80/12 31/82/12
f 21/83/2 20/107/2 32/84/2
f 31/86/13 57/182/13 58/87/13
f 61/91/4 32/148/4 57/183/4
f 32/148/4 31/151/4 57/183/4
f 53/172/4 52/174/4 59/89/4
f 52/174/4 60/90/4 59/89/4
f 61/91/4 57/183/4 59/89/4
f 57/92/14 59/184/14 62/93/14
f 59/95/15 53/185/15 55/96/15
f 53/98/2 55/70/2 56/99/2
f 58/103/3 21/139/3 20/141/3
f 60/102/3 56/63/3 62/186/3
f 56/63/3 55/62/3 62/186/3
f 58/103/3 20/141/3 61/101/3
f 60/102/3 62/186/3 58/103/3
f 49/120/3 54/61/3 46/121/3
