# Blender v2.93.2 OBJ File: ''
# www.blender.org
mtllib 5.mtl
o 5_5.001
v 1.500000 1.631060 1.500000
v 1.500000 2.162120 1.156440
v -1.500000 2.162120 1.156440
v -1.500000 1.631060 1.500000
v 1.500000 2.162120 1.056440
v 1.500000 0.631060 1.500000
v 1.500000 0.100000 1.156440
v 1.500000 0.100000 1.056440
v 1.500000 0.631060 1.400000
v 1.500000 1.631060 1.400000
v 1.500000 2.162120 -1.500000
v 1.500000 2.262120 -1.500000
v 1.500000 2.262120 1.500000
v 1.500000 2.162120 1.500000
v 1.500000 2.162120 -1.056440
v 1.500000 2.162120 -1.156440
v -1.500000 2.262120 -1.500000
v -1.500000 2.162120 -1.500000
v -1.500000 2.262120 1.500000
v -1.500000 2.162120 1.500000
v -1.500000 2.162120 -1.156440
v -1.500000 2.162120 -1.056440
v -1.500000 2.162120 1.056440
v -1.500000 1.631060 -1.500000
v 1.500000 1.631060 -1.500000
v -1.500000 0.631060 -1.500000
v -1.500000 0.100000 -1.156440
v -1.500000 0.100000 -1.056440
v -1.500000 0.631060 -1.400000
v -1.500000 1.631060 -1.400000
v 1.500000 0.631060 -1.500000
v 1.500000 1.631060 -1.400000
v 1.500000 0.631060 -1.400000
v 1.500000 0.100000 -1.056440
v 1.500000 0.100000 -1.156440
v -1.500000 0.100000 1.056440
v 1.500000 0.000000 -1.500000
v 1.500000 0.100000 -1.500000
v 1.500000 0.100000 1.500000
v 1.500000 -0.000000 1.500000
v -1.500000 0.000000 -1.500000
v -1.500000 0.100000 -1.500000
v -1.500000 -0.000000 1.500000
v -1.500000 0.100000 1.500000
v -1.500000 0.100000 1.156440
v -1.500000 0.631060 1.500000
v -1.500000 1.631060 1.400000
v -1.500000 0.631060 1.400000
vt 2.460630 1.947520
vt -2.460630 0.909955
vt 2.460630 0.909955
vt -2.460630 2.675620
vt -2.460630 1.035200
vt -2.296590 2.675620
vt 1.733010 3.546780
vt 1.897050 3.546780
vt 2.460630 3.710830
vt -2.460630 3.710830
vt 2.460630 3.546780
vt 2.460630 3.710830
vt -2.460630 -2.460630
vt 2.460630 2.460630
vt -2.460630 2.460630
vt 1.733010 3.546780
vt 1.897050 3.546780
vt 2.460630 3.710830
vt -2.460630 3.546780
vt -2.460630 3.710830
vt 2.460630 -1.897050
vt -2.460630 -2.460630
vt 2.460630 -2.460630
vt -2.460630 1.897050
vt 2.460630 2.460630
vt -2.460630 2.460630
vt 2.460630 1.947520
vt -2.460630 0.909955
vt 2.460630 0.909955
vt -2.460630 2.675620
vt -2.460630 1.035200
vt -2.296590 2.675620
vt 2.460630 2.675620
vt 2.460630 1.035200
vt 2.296590 1.035200
vt -2.460630 0.999058
vt 2.460630 2.036620
vt -2.460630 2.036620
vt 2.460630 2.675620
vt -2.460630 1.035200
vt 2.460630 1.035200
vt 2.460630 2.116620
vt -2.460630 1.079060
vt 2.460630 1.079060
vt 2.460630 1.733010
vt -2.460630 -1.733010
vt 2.460630 -1.733010
vt -1.733010 0.164042
vt -1.897050 0.164042
vt -2.460630 0.000000
vt 2.460630 0.164042
vt -2.460630 0.000000
vt 2.460630 0.000000
vt -1.733010 0.164042
vt -1.897050 0.164042
vt -2.460630 0.000000
vt -2.460630 0.000000
vt 2.460630 0.164042
vt -2.460630 0.164042
vt -2.460630 -2.460630
vt 2.460630 -2.460630
vt -2.460630 2.460630
vt 2.460630 2.460630
vt 2.460630 -1.897050
vt -2.460630 -2.460630
vt 2.460630 -2.460630
vt 2.460630 2.205730
vt -2.460630 1.168160
vt 2.460630 1.168160
vt 2.296590 1.035200
vt 2.460630 1.035200
vt 2.460630 2.675620
vt -2.460630 0.999058
vt 2.460630 2.036620
vt -2.460630 2.036620
vt -2.460630 1.035200
vt 2.460630 2.675620
vt -2.460630 2.675620
vt 2.460630 2.116620
vt -2.460630 1.079060
vt 2.460630 1.079060
vt -2.460630 -1.733010
vt 2.460630 1.733010
vt -2.460630 1.733010
vt 2.460630 2.675620
vt -2.460630 1.035200
vt 2.460630 1.035200
vt -2.460630 1.897050
vt 2.460630 2.460630
vt -2.460630 2.460630
vt 2.460630 2.205730
vt -2.460630 1.168160
vt 2.460630 1.168160
vt -2.460630 1.947520
vt -1.733010 3.546780
vt -1.897050 3.546780
vt -2.296590 1.035200
vt 2.460630 3.546780
vt -2.460630 3.546780
vt 2.460630 -2.460630
vt 2.460630 3.546780
vt -2.460630 3.710830
vt -1.733010 3.546780
vt -2.460630 3.546780
vt -1.897050 3.546780
vt -2.460630 -1.897050
vt 2.460630 1.897050
vt -2.460630 1.947520
vt -2.296590 1.035200
vt 2.296590 2.675620
vt 1.733010 0.164042
vt 1.897050 0.164042
vt 2.460630 0.999058
vt -2.460630 2.675620
vt -2.460630 2.116620
vt -2.460630 1.733010
vt 2.460630 0.000000
vt 2.460630 0.164042
vt -2.460630 0.164042
vt -2.460630 0.164042
vt 2.460630 0.000000
vt 1.733010 0.164042
vt 2.460630 0.164042
vt 1.897050 0.164042
vt -2.460630 0.164042
vt 2.460630 0.000000
vt -2.460630 -1.897050
vt -2.460630 2.205730
vt 2.296590 2.675620
vt 2.460630 0.999058
vt 2.460630 1.035200
vt -2.460630 2.116620
vt 2.460630 -1.733010
vt -2.460630 2.675620
vt 2.460630 1.897050
vt -2.460630 2.205730
vn 0.0000 0.5432 0.8396
vn 1.0000 0.0000 0.0000
vn 0.0000 0.0000 -1.0000
vn 0.0000 1.0000 0.0000
vn -1.0000 0.0000 0.0000
vn 0.0000 0.5432 -0.8396
vn 0.0000 -0.0000 1.0000
vn 0.0000 -0.5432 0.8396
vn 0.0000 -1.0000 -0.0000
vn 0.0000 -0.5432 -0.8396
usemtl Metal_Steel_Textured.012
s off
f 2/1/1 4/2/1 1/3/1
f 1/4/2 6/5/2 10/6/2
f 15/7/2 16/8/2 12/9/2
f 12/10/3 18/11/3 17/12/3
f 19/13/4 12/14/4 17/15/4
f 23/16/5 3/17/5 19/18/5
f 14/19/3 19/18/3 13/20/3
f 2/21/4 20/22/4 14/23/4
f 21/24/4 11/25/4 18/26/4
f 21/27/6 25/28/6 24/29/6
f 24/30/5 26/31/5 30/32/5
f 25/33/7 26/31/7 31/34/7
f 33/35/2 31/34/2 25/33/2
f 30/36/8 15/37/8 22/38/8
f 32/39/7 29/40/7 33/41/7
f 33/42/1 28/43/1 34/44/1
f 34/45/4 36/46/4 8/47/4
f 8/48/2 7/49/2 40/50/2
f 42/51/3 37/52/3 41/53/3
f 28/54/5 27/55/5 41/56/5
f 43/57/7 39/58/7 44/59/7
f 40/60/9 43/61/9 37/62/9
f 41/63/9 37/62/9 43/61/9
f 7/64/4 44/65/4 39/66/4
f 46/67/6 7/68/6 45/69/6
f 48/70/5 46/71/5 4/72/5
f 10/73/10 23/74/10 5/75/10
f 9/76/3 47/77/3 10/78/3
f 48/79/6 8/80/6 36/81/6
f 5/82/9 22/83/9 15/84/9
f 1/85/7 46/86/7 6/87/7
f 27/88/4 38/89/4 42/90/4
f 31/91/1 27/92/1 35/93/1
f 2/1/1 3/94/1 4/2/1
f 10/6/2 5/95/2 2/96/2
f 6/5/2 7/49/2 9/97/2
f 7/49/2 8/48/2 9/97/2
f 10/6/2 2/96/2 1/4/2
f 6/5/2 9/97/2 10/6/2
f 16/8/2 11/98/2 12/9/2
f 12/9/2 13/20/2 5/95/2
f 13/20/2 14/19/2 2/96/2
f 2/96/2 5/95/2 13/20/2
f 5/95/2 15/7/2 12/9/2
f 12/10/3 11/99/3 18/11/3
f 19/13/4 13/100/4 12/14/4
f 3/17/5 20/101/5 19/18/5
f 19/18/5 17/102/5 22/103/5
f 17/102/5 18/104/5 21/105/5
f 21/105/5 22/103/5 17/102/5
f 22/103/5 23/16/5 19/18/5
f 14/19/3 20/101/3 19/18/3
f 2/21/4 3/106/4 20/22/4
f 21/24/4 16/107/4 11/25/4
f 21/27/6 16/108/6 25/28/6
f 30/32/5 22/103/5 21/105/5
f 26/31/5 27/55/5 29/109/5
f 27/55/5 28/54/5 29/109/5
f 30/32/5 21/105/5 24/30/5
f 26/31/5 29/109/5 30/32/5
f 25/33/7 24/30/7 26/31/7
f 25/33/2 16/8/2 32/110/2
f 16/8/2 15/7/2 32/110/2
f 34/111/2 35/112/2 33/35/2
f 35/112/2 31/34/2 33/35/2
f 25/33/2 32/110/2 33/35/2
f 30/36/8 32/113/8 15/37/8
f 32/39/7 30/114/7 29/40/7
f 33/42/1 29/115/1 28/43/1
f 34/45/4 28/116/4 36/46/4
f 40/50/2 37/117/2 34/111/2
f 37/117/2 38/118/2 35/112/2
f 35/112/2 34/111/2 37/117/2
f 34/111/2 8/48/2 40/50/2
f 7/49/2 39/119/2 40/50/2
f 42/51/3 38/120/3 37/52/3
f 41/56/5 43/121/5 36/122/5
f 43/121/5 44/123/5 45/124/5
f 45/124/5 36/122/5 43/121/5
f 36/122/5 28/54/5 41/56/5
f 27/55/5 42/125/5 41/56/5
f 43/57/7 40/126/7 39/58/7
f 7/64/4 45/127/4 44/65/4
f 46/67/6 6/128/6 7/68/6
f 4/72/5 3/17/5 47/129/5
f 3/17/5 23/16/5 47/129/5
f 36/122/5 45/124/5 48/70/5
f 45/124/5 46/71/5 48/70/5
f 4/72/5 47/129/5 48/70/5
f 10/73/10 47/130/10 23/74/10
f 9/76/3 48/131/3 47/77/3
f 48/79/6 9/132/6 8/80/6
f 5/82/9 23/133/9 22/83/9
f 1/85/7 4/134/7 46/86/7
f 27/88/4 35/135/4 38/89/4
f 31/91/1 26/136/1 27/92/1
