# Blender v2.93.2 OBJ File: ''
# www.blender.org
mtllib 8.mtl
o 8_8.001
v 1.500000 2.262120 1.156440
v 1.500000 2.262120 -1.500000
v -1.156440 2.262120 -1.500000
v -1.500000 2.262120 -1.500000
v -1.500000 2.262120 1.500000
v 1.500000 2.262120 1.500000
v 1.500000 2.162120 1.500000
v 1.500000 2.162120 -1.500000
v 1.500000 2.162120 -1.156440
v 1.500000 2.162120 -1.056440
v 1.500000 2.162120 1.056440
v 1.500000 2.162120 1.156440
v -1.500000 2.162120 1.500000
v -1.156440 2.162120 1.500000
v -1.056440 2.162120 1.500000
v 1.056440 2.162120 1.500000
v 1.156440 2.162120 1.500000
v -1.500000 2.162120 -1.500000
v -1.156440 2.162120 -1.500000
v -1.056440 2.162120 -1.500000
v 1.056440 2.162120 -1.500000
v 1.156440 2.162120 -1.500000
v -1.500000 1.631060 1.500000
v -1.500000 0.631060 1.500000
v -1.156440 0.100000 1.500000
v -1.056440 0.100000 1.500000
v -1.400000 0.631060 1.500000
v -1.400000 1.631060 1.500000
v -1.500000 1.631060 -1.500000
v -1.400000 1.631060 -1.500000
v -1.400000 0.631060 -1.500000
v -1.056440 0.100000 -1.500000
v -1.156440 0.100000 -1.500000
v -1.500000 0.631060 -1.500000
v -1.500000 0.100000 1.500000
v -1.500000 -0.000000 1.500000
v 1.500000 -0.000000 1.500000
v 1.500000 0.100000 1.500000
v 1.156440 0.100000 1.500000
v 1.056440 0.100000 1.500000
v -1.500000 0.100000 -1.500000
v 1.500000 0.000000 -1.500000
v 1.500000 0.100000 -1.500000
v 1.156440 0.100000 -1.500000
v 1.056440 0.100000 -1.500000
v -1.500000 0.000000 -1.500000
v 1.500000 0.100000 1.156440
v 1.500000 0.100000 1.056440
v 1.500000 0.100000 -1.056440
v 1.500000 0.100000 -1.156440
v 1.500000 1.631060 1.400000
v 1.500000 0.631060 1.400000
v 1.500000 0.631060 1.500000
v 1.500000 1.631060 1.500000
v 1.400000 1.631060 -1.500000
v 1.500000 1.631060 -1.400000
v 1.500000 1.631060 -1.500000
v 1.500000 0.631060 -1.500000
v 1.500000 0.631060 -1.400000
v 1.400000 0.631060 -1.500000
v 1.400000 0.631060 1.500000
v 1.400000 1.631060 1.500000
vt 2.460630 -1.897050
vt -1.897050 2.460630
vt -2.460630 -2.460630
vt 1.733010 3.546780
vt 1.897050 3.546780
vt 1.897050 3.710830
vt -2.460630 3.710830
vt -1.897050 3.546780
vt -1.733010 3.546780
vt -2.460630 3.710830
vt 2.460630 3.546780
vt 2.460630 3.710830
vt -1.897050 3.710830
vt -2.460630 3.546780
vt -1.897050 3.546780
vt -1.897050 -2.460630
vt -2.460630 2.460630
vt -2.460630 -2.460630
vt -1.733010 -2.460630
vt -1.897050 2.460630
vt -2.460630 2.675620
vt -2.460630 1.035200
vt -2.296590 2.675620
vt 2.460630 1.947520
vt -2.460630 0.909955
vt 2.460630 0.909955
vt 2.296590 1.035200
vt 2.460630 1.035200
vt 2.460630 2.675620
vt -2.460630 0.999058
vt 2.460630 2.036620
vt -2.460630 2.036620
vt 2.460630 2.675620
vt -2.460630 1.035200
vt 2.460630 1.035200
vt 2.460630 2.116620
vt -2.460630 1.079060
vt 2.460630 1.079060
vt -1.733010 -2.460630
vt -1.897050 2.460630
vt -1.897050 -2.460630
vt 2.460630 0.000000
vt 1.897050 0.164042
vt 1.733010 0.164042
vt -2.460630 2.460630
vt -2.460630 -2.460630
vt 2.460630 2.205730
vt -2.460630 1.168160
vt 2.460630 1.168160
vt -1.733010 0.164042
vt -1.897050 0.164042
vt -2.460630 0.000000
vt -1.733010 0.164042
vt -1.897050 0.164042
vt -2.460630 0.000000
vt 2.460630 -2.460630
vt 2.460630 -1.897050
vt 1.897050 -2.460630
vt 2.460630 -1.733010
vt 2.296590 1.035200
vt 2.460630 1.035200
vt 2.460630 2.675620
vt 2.460630 -1.733010
vt 1.897050 -2.460630
vt 2.460630 -1.897050
vt -1.733010 -2.460630
vt 1.733010 -2.460630
vt -1.733010 2.460630
vt -0.514506 1.991780
vt 0.115995 1.033800
vt 0.514506 1.991780
vt 2.460630 1.733010
vt 1.897050 2.460630
vt 1.733010 2.460630
vt -2.460630 2.675620
vt -2.460630 1.035200
vt -2.296590 2.675620
vt 0.398511 1.943530
vt -0.398511 1.943530
vt 0.000000 0.985547
vt 2.460630 1.897050
vt 2.460630 2.460630
vt 2.296590 1.035200
vt 2.460630 1.035200
vt 2.460630 2.675620
vt -0.115995 2.675620
vt 0.115995 1.035200
vt 0.115995 2.675620
vt -0.115995 2.340710
vt 0.514506 1.382730
vt 0.115995 2.340710
vt 1.733010 2.460630
vt 2.460630 1.897050
vt 1.897050 2.460630
vt 1.733010 -2.460630
vt 2.460630 1.733010
vt -0.115995 2.340710
vt 0.514506 1.382730
vt 0.115995 2.340710
vt -0.115995 2.675620
vt 0.115995 1.035200
vt 0.115995 2.675620
vt -0.514506 1.991780
vt 0.115995 1.033800
vt 0.514506 1.991780
vt -2.460630 2.675620
vt -2.460630 1.035200
vt -2.296590 2.675620
vt 0.398511 1.943530
vt -0.398511 1.943530
vt 0.000000 0.985547
vt 2.460630 -2.460630
vt -0.398511 1.430980
vt 0.398511 1.430980
vt 0.000000 2.388960
vt -0.398511 1.430980
vt 0.398511 1.430980
vt 0.000000 2.388960
vt 2.460630 2.460630
vt 2.460630 -2.460630
vt 2.460630 2.460630
vt -2.460630 -2.460630
vt -2.460630 2.460630
vt -2.460630 0.164042
vt 2.460630 0.000000
vt 2.460630 0.164042
vt 2.460630 -2.460630
vt 2.460630 2.460630
vt -2.460630 2.460630
vt 2.460630 3.546780
vt 2.460630 3.710830
vt -2.460630 3.710830
vt -1.733010 3.546780
vt -2.460630 3.546780
vt -1.897050 3.546780
vt 1.897050 3.546780
vt 1.733010 3.546780
vt -2.460630 3.546780
vt 1.897050 3.546780
vt 2.460630 3.546780
vt 2.460630 3.710830
vt 1.733010 3.546780
vt -1.733010 3.546780
vt -1.733010 2.460630
vt -1.897050 0.164042
vt -2.296590 1.035200
vt -1.733010 0.164042
vt -2.460630 1.947520
vt 1.897050 3.546780
vt 2.296590 2.675620
vt 1.733010 3.546780
vt 1.733010 0.164042
vt 1.897050 0.164042
vt 2.460630 0.999058
vt -2.460630 2.675620
vt -2.460630 2.116620
vt -1.733010 2.460630
vt -2.460630 0.000000
vt -2.460630 0.164042
vt 2.460630 0.164042
vt -2.460630 2.205730
vt 2.460630 0.000000
vt 1.733010 0.164042
vt 2.460630 0.164042
vt 1.897050 0.164042
vt 1.733010 0.164042
vt 1.897050 0.164042
vt -2.460630 0.164042
vt 2.296590 2.675620
vt 1.733010 -2.460630
vt 1.733010 2.460630
vt -2.460630 1.733010
vt -2.460630 -1.733010
vt -0.115995 1.033800
vt -2.296590 1.035200
vt 2.296590 2.675620
vt -0.115995 1.035200
vt -0.514506 1.382730
vt -0.514506 1.382730
vt -0.115995 1.035200
vt -0.115995 1.033800
vt -1.733010 3.546780
vt -1.897050 3.546780
vt -1.897050 0.164042
vt -2.296590 1.035200
vt -1.733010 0.164042
vn 0.0000 1.0000 0.0000
vn -1.0000 0.0000 0.0000
vn 0.0000 0.0000 1.0000
vn -0.8396 0.5432 0.0000
vn 0.0000 0.0000 -1.0000
vn 0.8396 -0.5432 -0.0000
vn 1.0000 0.0000 0.0000
vn 0.8396 0.5432 0.0000
vn 0.0000 -1.0000 -0.0000
vn -0.6430 -0.4160 0.6430
vn -0.7071 0.0000 0.7071
vn -0.6430 0.4160 0.6430
vn -0.6430 0.4160 -0.6430
vn -0.7071 0.0000 -0.7071
vn -0.6430 -0.4160 -0.6430
usemtl Metal_Steel_Textured.006
s off
f 1/1/1 3/2/1 5/3/1
f 11/4/2 12/5/2 1/6/2
f 5/7/3 14/8/3 15/9/3
f 4/10/2 13/11/2 5/12/2
f 3/13/3 18/14/3 19/15/3
f 14/16/1 18/17/1 13/18/1
f 15/19/1 19/20/1 14/16/1
f 23/21/3 24/22/3 28/23/3
f 14/24/4 29/25/4 23/26/4
f 31/27/5 34/28/5 29/29/5
f 28/30/6 20/31/6 15/32/6
f 30/33/7 27/34/7 31/35/7
f 31/36/8 26/37/8 32/38/8
f 26/39/1 33/40/1 25/41/1
f 37/42/3 39/43/3 40/44/3
f 25/41/1 41/45/1 35/46/1
f 34/47/8 25/48/8 33/49/8
f 29/29/7 24/22/7 34/28/7
f 32/50/3 33/51/3 46/52/3
f 49/53/2 50/54/2 42/55/2
f 38/56/1 47/57/1 39/58/1
f 48/59/1 39/58/1 47/57/1
f 52/60/2 53/61/2 54/62/2
f 11/63/1 17/64/1 12/65/1
f 16/66/9 15/67/9 21/68/9
f 21/69/10 56/70/10 10/71/10
f 10/72/1 22/73/1 21/74/1
f 57/75/2 58/76/2 56/77/2
f 9/78/10 22/79/10 57/80/10
f 22/73/1 9/81/1 8/82/1
f 60/83/3 58/84/3 57/85/3
f 55/86/11 59/87/11 56/88/11
f 60/89/12 49/90/12 59/91/12
f 45/92/1 50/93/1 44/94/1
f 40/95/1 48/59/1 49/96/1
f 52/97/13 40/98/13 61/99/13
f 51/100/14 61/101/14 62/102/14
f 11/103/15 62/104/15 16/105/15
f 54/106/5 53/107/5 62/108/5
f 17/109/15 12/110/15 54/111/15
f 7/112/1 12/65/1 17/64/1
f 47/113/13 39/114/13 53/115/13
f 44/116/12 50/117/12 58/118/12
f 43/119/1 44/94/1 50/93/1
f 37/120/1 42/121/1 36/122/1
f 46/123/1 36/122/1 42/121/1
f 41/124/2 36/125/2 35/126/2
f 6/127/1 1/1/1 5/3/1
f 1/1/1 2/128/1 3/2/1
f 3/2/1 4/129/1 5/3/1
f 12/5/2 7/130/2 6/131/2
f 1/6/2 2/132/2 10/133/2
f 2/132/2 8/134/2 9/135/2
f 12/5/2 6/131/2 1/6/2
f 9/135/2 10/133/2 2/132/2
f 10/133/2 11/4/2 1/6/2
f 7/130/3 6/131/3 17/136/3
f 6/131/3 5/7/3 16/137/3
f 17/136/3 6/131/3 16/137/3
f 5/7/3 13/138/3 14/8/3
f 15/9/3 16/137/3 5/7/3
f 4/10/2 18/14/2 13/11/2
f 22/139/3 8/140/3 2/141/3
f 3/13/3 4/10/3 18/14/3
f 22/139/3 2/141/3 21/142/3
f 2/141/3 3/13/3 21/142/3
f 19/15/3 20/143/3 3/13/3
f 20/143/3 21/142/3 3/13/3
f 14/16/1 19/20/1 18/17/1
f 15/19/1 20/144/1 19/20/1
f 28/23/3 15/9/3 14/8/3
f 24/22/3 25/145/3 27/146/3
f 25/145/3 26/147/3 27/146/3
f 28/23/3 14/8/3 23/21/3
f 24/22/3 27/146/3 28/23/3
f 14/24/4 19/148/4 29/25/4
f 29/29/5 19/149/5 30/150/5
f 19/149/5 20/151/5 30/150/5
f 32/152/5 33/153/5 31/27/5
f 33/153/5 34/28/5 31/27/5
f 29/29/5 30/150/5 31/27/5
f 28/30/6 30/154/6 20/31/6
f 30/33/7 28/155/7 27/34/7
f 31/36/8 27/156/8 26/37/8
f 26/39/1 32/157/1 33/40/1
f 26/147/3 25/145/3 36/158/3
f 25/145/3 35/159/3 36/158/3
f 26/147/3 36/158/3 37/42/3
f 37/42/3 38/160/3 39/43/3
f 40/44/3 26/147/3 37/42/3
f 25/41/1 33/40/1 41/45/1
f 34/47/8 24/161/8 25/48/8
f 29/29/7 23/21/7 24/22/7
f 46/52/3 42/162/3 45/163/3
f 42/162/3 43/164/3 44/165/3
f 44/165/3 45/163/3 42/162/3
f 45/163/3 32/50/3 46/52/3
f 33/51/3 41/124/3 46/52/3
f 42/55/2 37/42/2 48/166/2
f 37/42/2 38/160/2 47/167/2
f 47/167/2 48/166/2 37/42/2
f 48/166/2 49/53/2 42/55/2
f 50/54/2 43/168/2 42/55/2
f 48/59/1 40/95/1 39/58/1
f 54/62/2 12/5/2 51/169/2
f 12/5/2 11/4/2 51/169/2
f 48/166/2 47/167/2 52/60/2
f 47/167/2 53/61/2 52/60/2
f 54/62/2 51/169/2 52/60/2
f 11/63/1 16/170/1 17/64/1
f 15/67/9 20/171/9 21/68/9
f 21/68/9 10/172/9 11/173/9
f 11/173/9 16/66/9 21/68/9
f 21/69/10 55/174/10 56/70/10
f 10/72/1 9/81/1 22/73/1
f 56/77/2 10/133/2 9/135/2
f 58/76/2 50/54/2 59/175/2
f 50/54/2 49/53/2 59/175/2
f 56/77/2 9/135/2 57/75/2
f 58/76/2 59/175/2 56/77/2
f 57/85/3 22/139/3 55/176/3
f 22/139/3 21/142/3 55/176/3
f 45/163/3 44/165/3 60/83/3
f 44/165/3 58/84/3 60/83/3
f 57/85/3 55/176/3 60/83/3
f 55/86/11 60/177/11 59/87/11
f 60/89/12 45/178/12 49/90/12
f 45/92/1 49/96/1 50/93/1
f 49/96/1 45/92/1 40/95/1
f 45/92/1 32/157/1 40/95/1
f 32/157/1 26/39/1 40/95/1
f 52/97/13 48/179/13 40/98/13
f 51/100/14 52/180/14 61/101/14
f 11/103/15 51/181/15 62/104/15
f 62/108/5 16/182/5 17/183/5
f 53/107/5 39/184/5 61/185/5
f 39/184/5 40/186/5 61/185/5
f 62/108/5 17/183/5 54/106/5
f 53/107/5 61/185/5 62/108/5
f 41/124/2 46/52/2 36/125/2
