# Alias OBJ Model File
# Exported from SketchUp, (c) 2000-2012 Trimble Navigation Limited
# File units = meters

mtllib Door.mtl

g Mesh1 Model

usemtl _Metal_Steel_Textured_1
v 0.233834 2.10212 0.441952
vt -0.107059 3.44836
vn -0.467668 0 -0.883904
v 0.111481 2.10212 0.487414
vt 0.107059 3.44836
vn -0.222961 0 -0.974827
v 0.111481 2.15212 0.487414
vt 0.107059 3.53038
v 0.233834 2.15212 0.441952
vt -0.107059 3.53038
f 1/1/1 2/2/2 3/3/2 4/4/1 

v 0.170413 2.10212 0.583167
vt -0.279549 -0.956638
vn 0 -1 -0
vt -0.182875 -0.799563
vt -0.383586 -0.724987
f 5/5/3 2/6/3 1/7/3

v 0.0136716 2.10212 0.607402
vt -0.0224272 -0.996394
f 6/8/3 2/6/3 5/5/3

v -0.0184699 2.10212 0.499659
vt 0.0302985 -0.81965
f 6/8/3 7/9/3 2/6/3

v -0.144001 2.10212 0.590244
vt 0.236223 -0.968247
f 8/10/3 7/9/3 6/8/3

v -0.147162 2.10212 0.477853
vt 0.241407 -0.783879
f 8/10/3 9/11/3 7/9/3

v -0.265825 2.10212 0.423482
vt 0.436064 -0.694689
f 8/10/3 10/12/3 9/11/3

v -0.291861 2.10212 0.532861
vt 0.478774 -0.874116
f 11/13/3 10/12/3 8/10/3

v -0.366372 2.10212 0.340252
vt 0.601004 -0.558156
f 11/13/3 12/14/3 10/12/3

v -0.419831 2.10212 0.439165
vt 0.688698 -0.720415
f 13/15/3 12/14/3 11/13/3

v -0.441952 2.10212 0.233834
vt 0.724987 -0.383586
f 13/15/3 14/16/3 12/14/3

v -0.487414 2.10212 0.111481
vt 0.799563 -0.182875
f 13/15/3 15/17/3 14/16/3

v -0.51919 2.10212 0.315541
vt 0.851689 -0.51762
f 16/18/3 15/17/3 13/15/3

v -0.499659 2.10212 -0.0184699
vt 0.81965 0.0302985
f 15/17/3 16/18/3 17/19/3

v -0.532861 2.10212 -0.291861
vt 0.874116 0.478774
f 16/18/3 18/20/3 17/19/3

v -0.583167 2.10212 0.170413
vt 0.956638 -0.279549
f 19/21/3 18/20/3 16/18/3

v -0.590244 2.10212 -0.144001
vt 0.968247 0.236223
f 19/21/3 20/22/3 18/20/3

v -0.607402 2.10212 0.0136716
vt 0.996394 -0.0224272
f 20/22/3 19/21/3 21/23/3

v -0.583167 2.26212 0.170413
vt 0.130088 3.71083
vn -0.959857 0 0.280489
v -0.607402 2.26212 0.0136716
vt -0.130088 3.71083
vn -0.999747 0 0.0225027
vt -0.130088 3.44836
vt 0.130088 3.44836
f 22/24/4 23/25/5 21/26/5 19/27/4 

v -0.590244 2.26212 -0.144001
vn -0.971505 0 -0.237018
f 23/24/5 24/25/6 20/26/6 21/27/5 

v -0.532861 2.26212 -0.291861
vn -0.877057 0 -0.480385
f 24/24/6 25/25/7 18/26/7 20/27/6 

v -0.439165 2.26212 -0.419831
vn -0.72284 0 -0.691016
v -0.439165 2.10212 -0.419831
f 25/24/7 26/25/8 27/26/8 18/27/7 

v -0.315541 2.26212 -0.51919
vn -0.519361 8.33327e-15 -0.854555
v -0.315541 2.10212 -0.51919
f 26/24/8 28/25/9 29/26/9 27/27/8 

v -0.170413 2.26212 -0.583167
vn -0.280489 2.63219e-14 -0.959857
v -0.170413 2.10212 -0.583167
f 28/24/9 30/25/10 31/26/10 29/27/9 

v -0.0136716 2.26212 -0.607402
vn -0.0225027 2.70364e-14 -0.999747
v -0.0136716 2.10212 -0.607402
f 30/24/10 32/25/11 33/26/11 31/27/10 

v 0.144001 2.26212 -0.590244
vn 0.237018 9.04779e-15 -0.971505
v 0.144001 2.10212 -0.590244
f 32/24/11 34/25/12 35/26/12 33/27/11 

v 0.291861 2.26212 -0.532861
vn 0.480385 0 -0.877057
v 0.291861 2.10212 -0.532861
f 34/24/12 36/25/13 37/26/13 35/27/12 

v 0.419831 2.26212 -0.439165
vn 0.691016 0 -0.72284
v 0.419831 2.10212 -0.439165
f 36/24/13 38/25/14 39/26/14 37/27/13 

v 0.51919 2.26212 -0.315541
vn 0.854555 0 -0.519361
v 0.51919 2.10212 -0.315541
f 38/24/14 40/25/15 41/26/15 39/27/14 

v 0.583167 2.26212 -0.170413
vn 0.959857 0 -0.280489
v 0.583167 2.10212 -0.170413
f 40/24/15 42/25/16 43/26/16 41/27/15 

v 0.607402 2.26212 -0.0136716
vn 0.999747 -5.23906e-19 -0.0225027
v 0.607402 2.10212 -0.0136716
f 42/24/16 44/25/17 45/26/17 43/27/16 

v 0.590244 2.26212 0.144001
vn 0.971505 -5.23906e-19 0.237018
v 0.590244 2.10212 0.144001
f 44/24/17 46/25/18 47/26/18 45/27/17 

v 0.532861 2.26212 0.291861
vn 0.877057 0 0.480385
v 0.532861 2.10212 0.291861
f 46/24/18 48/25/19 49/26/19 47/27/18 

v 0.439165 2.26212 0.419831
vn 0.72284 0 0.691016
v 0.439165 2.10212 0.419831
f 48/24/19 50/25/20 51/26/20 49/27/19 

v 0.315541 2.26212 0.51919
vn 0.519361 0 0.854555
v 0.315541 2.10212 0.51919
f 50/24/20 52/25/21 53/26/21 51/27/20 

v 0.170413 2.26212 0.583167
vn 0.280489 0 0.959857
f 52/24/21 54/25/22 5/26/22 53/27/21 

v 0.0136716 2.26212 0.607402
vn 0.0225027 0 0.999747
f 54/24/22 55/25/23 6/26/23 5/27/22 

v -0.144001 2.26212 0.590244
vn -0.237018 -8.48729e-15 0.971505
f 55/24/23 56/25/24 8/26/24 6/27/23 

v -0.291861 2.26212 0.532861
vn -0.480385 -1.58374e-14 0.877057
f 56/24/24 57/25/25 11/26/25 8/27/24 

v -0.419831 2.26212 0.439165
vn -0.691016 -7.35015e-15 0.72284
f 57/24/25 58/25/26 13/26/26 11/27/25 

v -0.51919 2.26212 0.315541
vn -0.854555 0 0.519361
f 58/24/26 59/25/27 16/26/27 13/27/26 

f 59/24/27 22/25/4 19/26/4 16/27/27 

vt -0.51762 -0.851689
f 5/5/3 1/7/3 53/28/3

v 0.340252 2.10212 0.366372
vt -0.558156 -0.601004
f 53/28/3 1/7/3 60/29/3

vn -0.680504 0 -0.732745
v 0.340252 2.15212 0.366372
f 60/1/28 1/2/1 4/3/1 61/4/28 

vn -1.01807e-15 -1 1.2299e-15
v 0.265825 2.15212 -0.423482
vt -0.436064 0.694689
f 4/7/29 62/30/29 61/29/29

v 0.2 2.15212 0.15
vt -0.328084 -0.246063
f 63/31/29 62/30/29 4/7/29

v 0.2 2.15212 -0.15
vt -0.328084 0.246063
f 64/32/29 62/30/29 63/31/29

v 0.15 2.15212 -0.15
vt -0.246063 0.246063
f 65/33/29 62/30/29 64/32/29

v 0.147162 2.15212 -0.477853
vt -0.241407 0.783879
f 62/30/29 65/33/29 66/34/29

v 0.15 2.15212 0.15
vt -0.246063 -0.246063
f 67/35/29 66/34/29 65/33/29

f 3/6/29 66/34/29 67/35/29

v 0.0184699 2.15212 -0.499659
vt -0.0302985 0.81965
f 3/6/29 68/36/29 66/34/29

v -0.0184699 2.15212 0.499659
f 69/9/29 68/36/29 3/6/29

v -0.111481 2.15212 -0.487414
vt 0.182875 0.799563
f 69/9/29 70/37/29 68/36/29

v -0.147162 2.15212 0.477853
f 71/11/29 70/37/29 69/9/29

v -0.2 2.15212 0.15
vt 0.328084 -0.246063
f 72/38/29 70/37/29 71/11/29

v -0.2 2.15212 0.123047
vt 0.328084 -0.201849
f 73/39/29 70/37/29 72/38/29

v -0.2 2.15212 -0.123047
vt 0.328084 0.201849
f 74/40/29 70/37/29 73/39/29

v -0.2 2.15212 -0.15
vt 0.328084 0.246063
f 75/41/29 70/37/29 74/40/29

v -0.233834 2.15212 -0.441952
vt 0.383586 0.724987
f 75/41/29 76/42/29 70/37/29

v -0.25 2.15212 -0.15
vt 0.410105 0.246063
f 77/43/29 76/42/29 75/41/29

v -0.340252 2.15212 -0.366372
vt 0.558156 0.601004
f 77/43/29 78/44/29 76/42/29

v -0.265825 2.15212 0.423482
f 79/12/29 78/44/29 77/43/29

v -0.366372 2.15212 0.340252
f 80/14/29 78/44/29 79/12/29

v -0.423482 2.15212 -0.265825
vt 0.694689 0.436064
f 80/14/29 81/45/29 78/44/29

v -0.441952 2.15212 0.233834
f 82/16/29 81/45/29 80/14/29

v -0.477853 2.15212 -0.147162
vt 0.783879 0.241407
f 82/16/29 83/46/29 81/45/29

v -0.487414 2.15212 0.111481
f 84/17/29 83/46/29 82/16/29

v -0.499659 2.15212 -0.0184699
f 83/46/29 84/17/29 85/19/29

vn 0.974827 0 -0.222961
vn 0.999317 0 0.0369399
f 15/1/30 17/2/31 85/3/31 84/4/30 

v -0.477853 2.10212 -0.147162
vn 0.955706 0 0.294324
f 17/1/31 86/2/32 83/3/32 85/4/31 

vt 0.720415 0.688698
f 17/19/3 27/47/3 86/46/3

f 17/19/3 18/20/3 27/47/3

v -0.423482 2.10212 -0.265825
f 86/46/3 27/47/3 87/45/3

vt 0.51762 0.851689
f 87/45/3 27/47/3 29/48/3

v -0.340252 2.10212 -0.366372
f 87/45/3 29/48/3 88/44/3

v -0.233834 2.10212 -0.441952
f 88/44/3 29/48/3 89/42/3

vt 0.279549 0.956638
f 89/42/3 29/48/3 31/49/3

v -0.111481 2.10212 -0.487414
f 89/42/3 31/49/3 90/37/3

vt 0.0224272 0.996394
f 90/37/3 31/49/3 33/50/3

v 0.0184699 2.10212 -0.499659
f 90/37/3 33/50/3 91/36/3

vt -0.236223 0.968247
f 91/36/3 33/50/3 35/51/3

v 0.147162 2.10212 -0.477853
f 91/36/3 35/51/3 92/34/3

vt -0.478774 0.874116
f 92/34/3 35/51/3 37/52/3

v 0.265825 2.10212 -0.423482
f 92/34/3 37/52/3 93/30/3

v 0.366372 2.10212 -0.340252
vt -0.601004 0.558156
f 93/30/3 37/52/3 94/53/3

vt -0.688698 0.720415
f 94/53/3 37/52/3 39/54/3

v 0.441952 2.10212 -0.233834
vt -0.724987 0.383586
f 94/53/3 39/54/3 95/55/3

vt -0.851689 0.51762
f 95/55/3 39/54/3 41/56/3

v 0.487414 2.10212 -0.111481
vt -0.799563 0.182875
f 95/55/3 41/56/3 96/57/3

v 0.499659 2.10212 0.0184699
vt -0.81965 -0.0302985
f 96/57/3 41/56/3 97/58/3

vt -0.874116 -0.478774
f 49/59/3 97/58/3 41/56/3

v 0.477853 2.10212 0.147162
vt -0.783879 -0.241407
f 49/59/3 98/60/3 97/58/3

vt -0.720415 -0.688698
f 51/61/3 98/60/3 49/59/3

v 0.423482 2.10212 0.265825
vt -0.694689 -0.436064
f 51/61/3 99/62/3 98/60/3

f 51/61/3 60/29/3 99/62/3

f 53/28/3 60/29/3 51/61/3

vn -0.846964 0 -0.53165
v 0.423482 2.15212 0.265825
f 99/1/33 60/2/28 61/3/28 100/4/33 

v 0.366372 2.15212 -0.340252
f 61/29/29 101/53/29 100/62/29

f 61/29/29 62/30/29 101/53/29

vn -0.53165 0 0.846964
vn -0.732745 0 0.680504
f 93/1/34 94/2/35 101/3/35 62/4/34 

vn -0.883904 0 0.467668
v 0.441952 2.15212 -0.233834
f 94/1/35 95/2/36 102/3/36 101/4/35 

vn -0.974827 0 0.222961
v 0.487414 2.15212 -0.111481
f 95/1/36 96/2/37 103/3/37 102/4/36 

vn -0.999317 -5.73976e-18 -0.0369399
v 0.499659 2.15212 0.0184699
f 96/1/37 97/2/38 104/3/38 103/4/37 

vn -0.955706 -5.73976e-18 -0.294324
v 0.477853 2.15212 0.147162
f 97/1/38 98/2/39 105/3/39 104/4/38 

f 98/1/39 99/2/33 100/3/33 105/4/39 

f 100/62/29 102/55/29 105/60/29

f 100/62/29 101/53/29 102/55/29

f 105/60/29 102/55/29 103/57/29

f 105/60/29 103/57/29 104/58/29

vn -0.294324 0 0.955706
f 92/1/40 93/2/34 62/3/34 66/4/40 

vn -0.0369399 0 0.999317
f 91/1/41 92/2/40 66/3/40 68/4/41 

vn 0.222961 3.35016e-18 0.974827
f 90/1/42 91/2/41 68/3/41 70/4/42 

vn 0.467668 3.35016e-18 0.883904
f 89/1/43 90/2/42 70/3/42 76/4/43 

vn 0.680504 0 0.732745
f 88/1/44 89/2/43 76/3/43 78/4/44 

vn 0.846964 0 0.53165
f 87/1/45 88/2/44 78/3/44 81/4/45 

f 86/1/32 87/2/45 81/3/45 83/4/32 

vt -0.956638 0.279549
f 49/59/3 41/56/3 43/63/3

vt -0.968247 -0.236223
f 49/59/3 43/63/3 47/64/3

vt -0.996394 0.0224272
f 47/64/3 43/63/3 45/65/3

vn 0.883904 0 -0.467668
f 14/1/46 15/2/30 84/3/30 82/4/46 

vn 0.732745 0 -0.680504
f 12/1/47 14/2/46 82/3/46 80/4/47 

vn 0.53165 0 -0.846964
f 10/1/48 12/2/47 80/3/47 79/4/48 

vn 0.294324 0 -0.955706
f 9/1/49 10/2/48 79/3/48 71/4/49 

v -0.25 2.15212 0.15
vt 0.410105 -0.246063
f 79/12/29 106/66/29 71/11/29

f 106/66/29 79/12/29 77/43/29

v -0.25 2.15212 -0.123047
vt 0.410105 0.201849
f 107/67/29 106/66/29 77/43/29

v -0.25 2.15212 0.123047
vt 0.410105 -0.201849
f 106/66/29 107/67/29 108/68/29

vt -0.201849 3.53038
vn -1 5.77529e-13 -6.31596e-26
vt -0.246063 3.53038
v -0.25 2.08212 -0.15
vt -0.246063 3.41555
v -0.25 2.08212 0.15
vt 0.246063 3.41555
vt 0.246063 3.53038
vt 0.201849 3.53038
f 107/69/50 77/70/50 109/71/50 110/72/50 106/73/50 108/74/50 

vt 0.410105 3.53038
vn 0 0 -1
vt 0.328084 3.53038
v -0.2 2.08212 -0.15
vt 0.328084 3.41555
vt 0.410105 3.41555
f 77/75/51 75/76/51 111/77/51 109/78/51 

vn 1 0 -0
v -0.2 2.08212 0.15
f 73/69/52 72/70/52 112/71/52 111/72/52 75/73/52 74/74/52 

vt -0.328084 3.53038
vn 0 0 1
vt -0.410105 3.53038
vt -0.410105 3.41555
vt -0.328084 3.41555
f 72/79/53 106/80/53 110/81/53 112/82/53 

f 71/11/29 106/66/29 72/38/29

f 111/41/3 112/38/3 110/66/3 109/43/3 

f 73/39/3 108/68/3 107/67/3 74/40/3 

vn 0.0369399 0 -0.999317
f 7/1/54 9/2/49 71/3/49 69/4/54 

f 2/1/2 7/2/54 69/3/54 3/4/2 

f 3/6/29 67/35/29 4/7/29

f 4/7/29 67/35/29 63/31/29

v 0.15 2.08212 0.15
v 0.2 2.08212 0.15
f 63/76/53 67/73/53 113/72/53 114/77/53 

v 0.15 2.15212 -0.123047
vn -1 0 -0
v 0.15 2.08212 -0.15
v 0.15 2.15212 0.123047
f 115/69/55 65/70/55 116/71/55 113/72/55 67/73/55 117/74/55 

vt -0.246063 0.201849
f 67/35/29 65/33/29 115/83/29

vt -0.246063 -0.201849
f 67/35/29 115/83/29 117/84/29

v 0.2 2.15212 0.123047
vt -0.328084 -0.201849
v 0.2 2.15212 -0.123047
vt -0.328084 0.201849
f 118/85/3 117/84/3 115/83/3 119/86/3 

vn 1 8.25042e-14 2.76611e-28
v 0.2 2.08212 -0.15
f 118/69/56 63/70/56 114/71/56 120/72/56 64/73/56 119/74/56 

f 118/85/29 64/32/29 63/31/29

f 64/32/29 118/85/29 119/86/29

f 113/35/3 116/33/3 120/32/3 114/31/3 

f 65/70/51 64/79/51 120/82/51 116/71/51 

